<svg width="24" height="24" viewBox="0 0 24 24" fill="none" xmlns="http://www.w3.org/2000/svg">
<rect x="8.66016" y="2" width="13" height="18" rx="0.85" transform="rotate(15 8.66016 2)" fill="#FF6C9A"/>
<rect x="7.55469" y="9.98621" width="5" height="6" rx="0.5" transform="rotate(15 7.55469 9.98621)" fill="white"/>
<rect x="13.3516" y="11.5392" width="5" height="6" rx="0.5" transform="rotate(15 13.3516 11.5392)" fill="white"/>
<rect x="9.36719" y="3.22473" width="5" height="6" rx="0.5" transform="rotate(15 9.36719 3.22473)" fill="white"/>
<rect x="15.1641" y="4.77771" width="5" height="6" rx="0.5" transform="rotate(15 15.1641 4.77771)" fill="white"/>
<rect x="3" y="5" width="8" height="17" rx="0.85" fill="#FF6C9A"/>
<rect x="4" y="6" width="6" height="4" rx="0.5" fill="white"/>
<rect x="4" y="11" width="6" height="4" rx="0.5" fill="white"/>
<rect x="4" y="16" width="6" height="4" rx="0.5" fill="white"/>
</svg>
