<svg width="24" height="24" viewBox="0 0 24 24" fill="none" xmlns="http://www.w3.org/2000/svg">
<rect x="8.65918" y="2" width="13" height="18" rx="0.85" transform="rotate(15 8.65918 2)" fill="#26272C"/>
<rect x="7.55469" y="9.98633" width="5" height="6" rx="0.5" transform="rotate(15 7.55469 9.98633)" fill="white"/>
<rect x="13.3506" y="11.5391" width="5" height="6" rx="0.5" transform="rotate(15 13.3506 11.5391)" fill="white"/>
<rect x="9.36621" y="3.22461" width="5" height="6" rx="0.5" transform="rotate(15 9.36621 3.22461)" fill="white"/>
<rect x="15.1621" y="4.77783" width="5" height="6" rx="0.5" transform="rotate(15 15.1621 4.77783)" fill="white"/>
<rect x="3" y="5" width="8" height="17" rx="0.85" fill="#26272C"/>
<rect x="4" y="6" width="6" height="4" rx="0.5" fill="white"/>
<rect x="4" y="11" width="6" height="4" rx="0.5" fill="white"/>
<rect x="4" y="16" width="6" height="4" rx="0.5" fill="white"/>
</svg>
