<svg width="32" height="32" viewBox="0 0 32 32" fill="none" xmlns="http://www.w3.org/2000/svg">
<path d="M16 4C13.3488 4.00284 10.807 4.99712 8.93225 6.76472C7.05754 8.53233 6.00301 10.9289 6 13.4287C6 21.4966 15.0909 27.5899 15.4784 27.8449C15.6313 27.9458 15.8134 28 16 28C16.1866 28 16.3687 27.9458 16.5216 27.8449C16.9091 27.5899 26 21.4966 26 13.4287C25.997 10.9289 24.9425 8.53233 23.0677 6.76472C21.193 4.99712 18.6512 4.00284 16 4Z" stroke="#676B79" stroke-width="2"/>
<path d="M18.0199 10.5778C17.4219 10.2011 16.7188 10 15.9996 10C15.0352 10 14.1103 10.3612 13.4283 11.0042C12.7464 11.6472 12.3633 12.5193 12.3633 13.4286C12.3633 14.1067 12.5766 14.7696 12.9761 15.3334C13.3757 15.8973 13.9436 16.3367 14.6081 16.5962C15.2725 16.8557 16.0037 16.9236 16.7091 16.7913C17.4144 16.659 18.0624 16.3325 18.5709 15.853C19.0795 15.3735 19.4258 14.7626 19.5661 14.0975C19.7064 13.4324 19.6344 12.743 19.3592 12.1165C19.084 11.49 18.6179 10.9546 18.0199 10.5778Z" stroke="#676B79" stroke-width="2"/>
</svg>
