<svg width="197" height="51" viewBox="0 0 197 51" fill="none" xmlns="http://www.w3.org/2000/svg">
<g filter="url(#filter0_diii_988_2073)">
<rect x="4.5" y="8" width="188" height="37" rx="16" fill="#FF6C9A" shape-rendering="crispEdges"/>
<path d="M22.5008 21.13C22.8648 21.13 23.1168 21.2 23.2568 21.34C23.3968 21.4707 23.4668 21.7133 23.4668 22.068V27.948C23.4668 28.3027 23.3968 28.55 23.2568 28.69C23.1168 28.8207 22.8648 28.886 22.5008 28.886H18.5808C18.2168 28.886 17.9648 28.8207 17.8248 28.69C17.6848 28.55 17.6148 28.3027 17.6148 27.948V22.068C17.6148 21.7133 17.6848 21.4707 17.8248 21.34C17.9648 21.2 18.2168 21.13 18.5808 21.13H22.5008ZM18.8888 22.012C18.7114 22.012 18.6228 22.096 18.6228 22.264V27.752C18.6228 27.92 18.7114 28.004 18.8888 28.004H22.1788C22.3561 28.004 22.4448 27.92 22.4448 27.752V22.264C22.4448 22.096 22.3561 22.012 22.1788 22.012H18.8888ZM26.3508 20.164C26.4814 20.164 26.5981 20.1967 26.7008 20.262C26.8128 20.3273 26.8688 20.4347 26.8688 20.584V24.49H28.6468C28.7774 24.49 28.8708 24.5367 28.9268 24.63C28.9828 24.714 29.0108 24.8167 29.0108 24.938C29.0108 25.0687 28.9828 25.1807 28.9268 25.274C28.8708 25.358 28.7774 25.4 28.6468 25.4H26.8688V31.728C26.8688 31.8773 26.8128 31.9847 26.7008 32.05C26.5981 32.1153 26.4814 32.148 26.3508 32.148C26.2201 32.148 26.1034 32.1153 26.0008 32.05C25.8981 31.9847 25.8468 31.8773 25.8468 31.728V20.584C25.8468 20.4347 25.8981 20.3273 26.0008 20.262C26.1034 20.1967 26.2201 20.164 26.3508 20.164ZM37.077 21.158C37.1983 21.158 37.287 21.2 37.343 21.284C37.399 21.368 37.427 21.4753 37.427 21.606C37.427 21.7273 37.399 21.8347 37.343 21.928C37.287 22.012 37.1983 22.054 37.077 22.054H34.473V23.664C34.473 23.972 34.4916 24.252 34.529 24.504C34.5663 24.7467 34.627 24.9753 34.711 25.19C34.795 25.3953 34.907 25.6007 35.047 25.806C35.1963 26.0113 35.383 26.226 35.607 26.45C35.9243 26.7673 36.237 27.0753 36.545 27.374C36.853 27.6633 37.133 27.9153 37.385 28.13C37.4876 28.2233 37.5296 28.3353 37.511 28.466C37.5016 28.5873 37.4596 28.69 37.385 28.774C37.2916 28.858 37.1843 28.914 37.063 28.942C36.951 28.9607 36.8436 28.9187 36.741 28.816C36.5076 28.62 36.2556 28.3913 35.985 28.13C35.7143 27.8687 35.4203 27.5793 35.103 27.262C34.879 27.038 34.697 26.8467 34.557 26.688C34.4263 26.5293 34.319 26.3893 34.235 26.268C34.151 26.1467 34.0903 26.044 34.053 25.96C34.0156 25.8667 33.9876 25.7827 33.969 25.708H33.955C33.9363 25.792 33.9083 25.8807 33.871 25.974C33.8336 26.058 33.773 26.1607 33.689 26.282C33.605 26.4033 33.493 26.5433 33.353 26.702C33.213 26.8607 33.0356 27.052 32.821 27.276C32.5036 27.5933 32.2003 27.892 31.911 28.172C31.6216 28.4427 31.3136 28.718 30.987 28.998C30.875 29.1007 30.7583 29.138 30.637 29.11C30.5156 29.082 30.4176 29.026 30.343 28.942C30.259 28.8393 30.2123 28.7273 30.203 28.606C30.1936 28.4847 30.2403 28.382 30.343 28.298C30.6976 27.99 31.0336 27.6867 31.351 27.388C31.6683 27.08 31.9856 26.7673 32.303 26.45C32.527 26.226 32.709 26.0113 32.849 25.806C32.9983 25.6007 33.115 25.3953 33.199 25.19C33.283 24.9753 33.3436 24.7467 33.381 24.504C33.4183 24.252 33.437 23.972 33.437 23.664V22.054H30.777C30.6556 22.054 30.567 22.012 30.511 21.928C30.455 21.8347 30.427 21.7273 30.427 21.606C30.427 21.4753 30.455 21.368 30.511 21.284C30.567 21.2 30.6556 21.158 30.777 21.158H37.077ZM39.695 20.164C39.8256 20.164 39.9423 20.1967 40.045 20.262C40.157 20.3273 40.213 20.4347 40.213 20.584V31.728C40.213 31.8773 40.157 31.9847 40.045 32.05C39.9423 32.1153 39.8256 32.148 39.695 32.148C39.5643 32.148 39.4476 32.1153 39.345 32.05C39.2423 31.9847 39.191 31.8773 39.191 31.728V20.584C39.191 20.4347 39.2423 20.3273 39.345 20.262C39.4476 20.1967 39.5643 20.164 39.695 20.164ZM47.9292 20.878C48.2932 20.878 48.5452 20.948 48.6852 21.088C48.8252 21.2187 48.8952 21.4613 48.8952 21.816V25.652C48.8952 26.0067 48.8252 26.254 48.6852 26.394C48.5452 26.5247 48.2932 26.59 47.9292 26.59H44.0652C43.7012 26.59 43.4492 26.5247 43.3092 26.394C43.1692 26.254 43.0992 26.0067 43.0992 25.652V21.816C43.0992 21.4613 43.1692 21.2187 43.3092 21.088C43.4492 20.948 43.7012 20.878 44.0652 20.878H47.9292ZM44.3732 21.76C44.2705 21.76 44.2005 21.7787 44.1632 21.816C44.1258 21.844 44.1072 21.9093 44.1072 22.012V25.442C44.1072 25.6193 44.1958 25.708 44.3732 25.708H47.6212C47.7985 25.708 47.8872 25.6193 47.8872 25.442V22.012C47.8872 21.9093 47.8685 21.844 47.8312 21.816C47.7938 21.7787 47.7238 21.76 47.6212 21.76H44.3732ZM51.8352 20.164C51.9658 20.164 52.0825 20.1967 52.1852 20.262C52.2972 20.3273 52.3532 20.4347 52.3532 20.584V23.272H54.1312C54.2618 23.272 54.3552 23.3187 54.4112 23.412C54.4672 23.496 54.4952 23.6033 54.4952 23.734C54.4952 23.8553 54.4672 23.9627 54.4112 24.056C54.3552 24.14 54.2618 24.182 54.1312 24.182H52.3532V27.234C52.3532 27.3833 52.2972 27.4907 52.1852 27.556C52.0825 27.6213 51.9658 27.654 51.8352 27.654C51.7045 27.654 51.5878 27.6213 51.4852 27.556C51.3825 27.4907 51.3312 27.3833 51.3312 27.234V20.584C51.3312 20.4347 51.3825 20.3273 51.4852 20.262C51.5878 20.1967 51.7045 20.164 51.8352 20.164ZM51.3872 28.368C51.7512 28.368 52.0032 28.438 52.1432 28.578C52.2832 28.7087 52.3532 28.9513 52.3532 29.306V32.652C52.3532 32.8013 52.2972 32.9087 52.1852 32.974C52.0825 33.0393 51.9658 33.072 51.8352 33.072C51.7045 33.072 51.5878 33.0393 51.4852 32.974C51.3825 32.9087 51.3312 32.8013 51.3312 32.652V29.502C51.3312 29.334 51.2425 29.25 51.0652 29.25H44.6532C44.5318 29.25 44.4432 29.208 44.3872 29.124C44.3312 29.04 44.3032 28.9373 44.3032 28.816C44.3032 28.6853 44.3312 28.578 44.3872 28.494C44.4432 28.41 44.5318 28.368 44.6532 28.368H51.3872ZM67.7973 20.92C68.1613 20.92 68.4133 20.99 68.5533 21.13C68.6933 21.2607 68.7633 21.5033 68.7633 21.858V23.678C68.7633 24.0327 68.6933 24.28 68.5533 24.42C68.4133 24.5507 68.1613 24.616 67.7973 24.616H61.7913C61.614 24.616 61.5253 24.7047 61.5253 24.882V26.352C61.5253 26.52 61.614 26.604 61.7913 26.604H68.7493C68.8707 26.604 68.9593 26.646 69.0153 26.73C69.0713 26.814 69.0993 26.9167 69.0993 27.038C69.0993 27.1593 69.0713 27.2667 69.0153 27.36C68.9593 27.444 68.8707 27.486 68.7493 27.486H61.4833C61.1193 27.486 60.8673 27.4207 60.7273 27.29C60.5873 27.15 60.5173 26.9027 60.5173 26.548V24.714C60.5173 24.3593 60.5873 24.1167 60.7273 23.986C60.8673 23.846 61.1193 23.776 61.4833 23.776H67.5033C67.6807 23.776 67.7693 23.6873 67.7693 23.51V22.054C67.7693 21.8767 67.6807 21.788 67.5033 21.788H60.8393C60.718 21.788 60.6293 21.746 60.5733 21.662C60.5173 21.578 60.4893 21.4753 60.4893 21.354C60.4893 21.2327 60.5173 21.13 60.5733 21.046C60.6293 20.962 60.718 20.92 60.8393 20.92H67.7973ZM65.1653 29.964H70.1213C70.252 29.964 70.3453 30.006 70.4013 30.09C70.4573 30.174 70.4853 30.2813 70.4853 30.412C70.4853 30.5333 70.4573 30.636 70.4013 30.72C70.3453 30.804 70.252 30.846 70.1213 30.846H59.1733C59.0427 30.846 58.9493 30.804 58.8933 30.72C58.8373 30.636 58.8093 30.5333 58.8093 30.412C58.8093 30.2813 58.8373 30.174 58.8933 30.09C58.9493 30.006 59.0427 29.964 59.1733 29.964H64.1433V27.01H65.1653V29.964ZM80.4835 21.144C80.8475 21.144 81.0995 21.214 81.2395 21.354C81.3795 21.4847 81.4495 21.7273 81.4495 22.082V23.328C81.4495 24.2707 81.4122 25.1527 81.3375 25.974C81.2629 26.786 81.1369 27.5933 80.9595 28.396C80.9409 28.5267 80.8709 28.62 80.7495 28.676C80.6375 28.732 80.5069 28.746 80.3575 28.718C80.2269 28.6993 80.1195 28.648 80.0355 28.564C79.9609 28.4707 79.9375 28.3633 79.9655 28.242C80.1242 27.4113 80.2409 26.604 80.3155 25.82C80.3995 25.036 80.4415 24.266 80.4415 23.51V22.306C80.4415 22.2033 80.4182 22.138 80.3715 22.11C80.3342 22.0727 80.2689 22.054 80.1755 22.054H73.4415C73.3109 22.054 73.2175 22.012 73.1615 21.928C73.1055 21.8347 73.0775 21.7227 73.0775 21.592C73.0775 21.4613 73.1055 21.354 73.1615 21.27C73.2175 21.186 73.3109 21.144 73.4415 21.144H80.4835ZM82.8635 29.95C82.9942 29.95 83.0875 29.9967 83.1435 30.09C83.1995 30.174 83.2275 30.2813 83.2275 30.412C83.2275 30.5333 83.1995 30.636 83.1435 30.72C83.0875 30.804 82.9942 30.846 82.8635 30.846H71.9155C71.7849 30.846 71.6915 30.804 71.6355 30.72C71.5795 30.636 71.5515 30.5333 71.5515 30.412C71.5515 30.2813 71.5795 30.174 71.6355 30.09C71.6915 29.9967 71.7849 29.95 71.9155 29.95H82.8635ZM88.0177 20.808C88.5497 20.808 89.0117 20.892 89.4037 21.06C89.8051 21.2187 90.1364 21.4427 90.3977 21.732C90.6591 22.0213 90.8551 22.3573 90.9857 22.74C91.1164 23.1227 91.1817 23.538 91.1817 23.986C91.1817 24.4247 91.1164 24.84 90.9857 25.232C90.8551 25.6147 90.6591 25.9507 90.3977 26.24C90.1364 26.52 89.8051 26.744 89.4037 26.912C89.0117 27.0707 88.5497 27.15 88.0177 27.15C87.4857 27.15 87.0191 27.0707 86.6177 26.912C86.2257 26.744 85.8991 26.52 85.6377 26.24C85.3764 25.9507 85.1804 25.6147 85.0497 25.232C84.9191 24.84 84.8537 24.4247 84.8537 23.986C84.8537 23.538 84.9191 23.1227 85.0497 22.74C85.1804 22.3573 85.3764 22.0213 85.6377 21.732C85.8991 21.4427 86.2257 21.2187 86.6177 21.06C87.0191 20.892 87.4857 20.808 88.0177 20.808ZM88.0177 21.69C87.6257 21.69 87.2944 21.7553 87.0237 21.886C86.7531 22.0073 86.5291 22.1753 86.3517 22.39C86.1744 22.5953 86.0437 22.838 85.9597 23.118C85.8851 23.3887 85.8477 23.678 85.8477 23.986C85.8477 24.294 85.8851 24.588 85.9597 24.868C86.0437 25.1387 86.1744 25.3813 86.3517 25.596C86.5291 25.8013 86.7531 25.9647 87.0237 26.086C87.2944 26.2073 87.6257 26.268 88.0177 26.268C88.4097 26.268 88.7411 26.2073 89.0117 26.086C89.2824 25.9647 89.5064 25.8013 89.6837 25.596C89.8611 25.3813 89.9871 25.1387 90.0617 24.868C90.1457 24.588 90.1877 24.294 90.1877 23.986C90.1877 23.678 90.1457 23.3887 90.0617 23.118C89.9871 22.838 89.8611 22.5953 89.6837 22.39C89.5064 22.1753 89.2824 22.0073 89.0117 21.886C88.7411 21.7553 88.4097 21.69 88.0177 21.69ZM94.1777 20.164C94.3084 20.164 94.4251 20.1967 94.5277 20.262C94.6304 20.3273 94.6817 20.4347 94.6817 20.584V29.124C94.6817 29.2733 94.6304 29.3807 94.5277 29.446C94.4251 29.5113 94.3084 29.544 94.1777 29.544C94.0471 29.544 93.9257 29.5113 93.8137 29.446C93.7111 29.3807 93.6597 29.2733 93.6597 29.124V20.584C93.6597 20.4347 93.7111 20.3273 93.8137 20.262C93.9257 20.1967 94.0471 20.164 94.1777 20.164ZM87.2617 28.452C87.3924 28.452 87.5091 28.4847 87.6117 28.55C87.7237 28.6153 87.7797 28.7227 87.7797 28.872V31.616C87.7797 31.784 87.8684 31.868 88.0457 31.868H94.6817C94.8124 31.868 94.9057 31.91 94.9617 31.994C95.0177 32.0873 95.0457 32.1947 95.0457 32.316C95.0457 32.4373 95.0177 32.54 94.9617 32.624C94.9057 32.7173 94.8124 32.764 94.6817 32.764H87.7097C87.3457 32.764 87.0937 32.694 86.9537 32.554C86.8137 32.4233 86.7437 32.1807 86.7437 31.826V28.872C86.7437 28.7227 86.7951 28.6153 86.8977 28.55C87.0097 28.4847 87.1311 28.452 87.2617 28.452ZM100.83 23.538C101.745 23.538 102.454 23.748 102.958 24.168C103.471 24.5787 103.728 25.1293 103.728 25.82C103.728 26.5107 103.471 27.066 102.958 27.486C102.454 27.8967 101.745 28.102 100.83 28.102C99.9152 28.102 99.2012 27.8967 98.6879 27.486C98.1839 27.066 97.9319 26.5107 97.9319 25.82C97.9319 25.1293 98.1839 24.5787 98.6879 24.168C99.2012 23.748 99.9152 23.538 100.83 23.538ZM100.83 20.136C100.961 20.136 101.077 20.1687 101.18 20.234C101.292 20.2993 101.348 20.4067 101.348 20.556V21.662H104.134C104.265 21.662 104.358 21.704 104.414 21.788C104.47 21.872 104.498 21.9747 104.498 22.096C104.498 22.2267 104.47 22.334 104.414 22.418C104.358 22.502 104.265 22.544 104.134 22.544H97.3859C97.2552 22.544 97.1619 22.502 97.1059 22.418C97.0499 22.334 97.0219 22.2267 97.0219 22.096C97.0219 21.9747 97.0499 21.872 97.1059 21.788C97.1619 21.704 97.2552 21.662 97.3859 21.662H100.312V20.556C100.312 20.4067 100.363 20.2993 100.466 20.234C100.578 20.1687 100.699 20.136 100.83 20.136ZM100.83 24.364C100.195 24.364 99.7099 24.4993 99.3739 24.77C99.0379 25.0313 98.8699 25.3813 98.8699 25.82C98.8699 26.2587 99.0379 26.6133 99.3739 26.884C99.7099 27.1453 100.195 27.276 100.83 27.276C101.465 27.276 101.95 27.1453 102.286 26.884C102.622 26.6133 102.79 26.2587 102.79 25.82C102.79 25.3813 102.622 25.0313 102.286 24.77C101.95 24.4993 101.465 24.364 100.83 24.364ZM106.318 20.164C106.449 20.164 106.565 20.1967 106.668 20.262C106.771 20.3273 106.822 20.4347 106.822 20.584V23.986H108.6C108.731 23.986 108.824 24.0327 108.88 24.126C108.936 24.21 108.964 24.3127 108.964 24.434C108.964 24.5553 108.936 24.6627 108.88 24.756C108.824 24.84 108.731 24.882 108.6 24.882H106.822V29.264C106.822 29.4133 106.771 29.5207 106.668 29.586C106.565 29.6513 106.449 29.684 106.318 29.684C106.187 29.684 106.071 29.6513 105.968 29.586C105.865 29.5207 105.814 29.4133 105.814 29.264V20.584C105.814 20.4347 105.865 20.3273 105.968 20.262C106.071 20.1967 106.187 20.164 106.318 20.164ZM99.5419 28.984C99.6726 28.984 99.7892 29.0167 99.8919 29.082C100.004 29.1473 100.06 29.2547 100.06 29.404V31.616C100.06 31.784 100.149 31.868 100.326 31.868H106.822C106.953 31.868 107.046 31.91 107.102 31.994C107.158 32.0873 107.186 32.1947 107.186 32.316C107.186 32.4373 107.158 32.54 107.102 32.624C107.046 32.7173 106.953 32.764 106.822 32.764H99.9899C99.6259 32.764 99.3739 32.694 99.2339 32.554C99.0939 32.4233 99.0239 32.1807 99.0239 31.826V29.404C99.0239 29.2547 99.0752 29.1473 99.1779 29.082C99.2899 29.0167 99.4112 28.984 99.5419 28.984ZM117.45 21.242C117.814 21.242 118.066 21.312 118.206 21.452C118.346 21.5827 118.416 21.8253 118.416 22.18V23.65C118.416 24.0793 118.397 24.4573 118.36 24.784C118.332 25.1013 118.267 25.3953 118.164 25.666C118.071 25.9273 117.931 26.1793 117.744 26.422C117.557 26.6647 117.31 26.9213 117.002 27.192C116.694 27.4627 116.311 27.766 115.854 28.102C115.406 28.4287 114.869 28.816 114.244 29.264C114.141 29.3387 114.029 29.362 113.908 29.334C113.787 29.2967 113.689 29.2267 113.614 29.124C113.539 29.0213 113.502 28.9047 113.502 28.774C113.511 28.6433 113.567 28.5407 113.67 28.466C114.249 28.0647 114.743 27.7193 115.154 27.43C115.565 27.1313 115.91 26.8653 116.19 26.632C116.47 26.3893 116.689 26.1653 116.848 25.96C117.016 25.7453 117.142 25.526 117.226 25.302C117.31 25.078 117.361 24.8307 117.38 24.56C117.408 24.2893 117.422 23.972 117.422 23.608V22.39C117.422 22.222 117.333 22.138 117.156 22.138H114.02C113.889 22.138 113.796 22.096 113.74 22.012C113.684 21.9187 113.656 21.8113 113.656 21.69C113.656 21.5687 113.684 21.466 113.74 21.382C113.796 21.2887 113.889 21.242 114.02 21.242H117.45ZM123.582 20.164C123.713 20.164 123.825 20.1967 123.918 20.262C124.021 20.3273 124.072 20.43 124.072 20.57V31.742C124.072 31.882 124.021 31.9847 123.918 32.05C123.825 32.1153 123.713 32.148 123.582 32.148C123.461 32.148 123.349 32.1153 123.246 32.05C123.153 31.9847 123.106 31.882 123.106 31.742V20.57C123.106 20.43 123.153 20.3273 123.246 20.262C123.349 20.1967 123.461 20.164 123.582 20.164ZM121.076 20.304C121.197 20.304 121.305 20.3367 121.398 20.402C121.501 20.4673 121.552 20.57 121.552 20.71V31.154C121.552 31.294 121.501 31.3967 121.398 31.462C121.305 31.5273 121.197 31.56 121.076 31.56C120.945 31.56 120.829 31.5273 120.726 31.462C120.633 31.3967 120.586 31.294 120.586 31.154V27.066H118.864C118.743 27.066 118.654 27.024 118.598 26.94C118.542 26.856 118.514 26.7487 118.514 26.618C118.514 26.4967 118.542 26.394 118.598 26.31C118.654 26.226 118.743 26.184 118.864 26.184H120.586V23.902H117.968V23.034H120.586V20.71C120.586 20.57 120.633 20.4673 120.726 20.402C120.829 20.3367 120.945 20.304 121.076 20.304ZM133.076 20.92C133.198 20.92 133.286 20.962 133.342 21.046C133.398 21.13 133.426 21.2327 133.426 21.354C133.426 21.4847 133.398 21.592 133.342 21.676C133.286 21.76 133.198 21.802 133.076 21.802H130.542V22.796C130.542 23.2813 130.617 23.6873 130.766 24.014C130.916 24.3313 131.168 24.6347 131.522 24.924C131.877 25.1947 132.208 25.4467 132.516 25.68C132.834 25.9133 133.1 26.1093 133.314 26.268C133.436 26.3613 133.501 26.4687 133.51 26.59C133.52 26.702 133.487 26.8093 133.412 26.912C133.347 27.0053 133.258 27.0707 133.146 27.108C133.034 27.1453 132.913 27.1173 132.782 27.024C132.614 26.912 132.381 26.744 132.082 26.52C131.784 26.296 131.471 26.058 131.144 25.806C130.78 25.5073 130.514 25.26 130.346 25.064C130.178 24.8587 130.076 24.6813 130.038 24.532H130.024C129.987 24.6907 129.884 24.8727 129.716 25.078C129.548 25.2833 129.278 25.5353 128.904 25.834C128.578 26.0953 128.251 26.3473 127.924 26.59C127.607 26.8233 127.313 27.0333 127.042 27.22C126.921 27.304 126.804 27.3273 126.692 27.29C126.58 27.2527 126.487 27.1873 126.412 27.094C126.338 26.9913 126.3 26.8793 126.3 26.758C126.31 26.6367 126.38 26.534 126.51 26.45C126.846 26.2073 127.178 25.9647 127.504 25.722C127.831 25.4793 128.172 25.218 128.526 24.938C128.881 24.6487 129.133 24.3453 129.282 24.028C129.432 23.7013 129.506 23.3 129.506 22.824V21.802H126.888C126.767 21.802 126.678 21.76 126.622 21.676C126.566 21.592 126.538 21.4847 126.538 21.354C126.538 21.2327 126.566 21.13 126.622 21.046C126.678 20.962 126.767 20.92 126.888 20.92H133.076ZM135.988 20.164C136.119 20.164 136.236 20.1967 136.338 20.262C136.441 20.3273 136.492 20.4347 136.492 20.584V27.402C136.492 27.5513 136.441 27.6587 136.338 27.724C136.236 27.7893 136.119 27.822 135.988 27.822C135.858 27.822 135.741 27.7893 135.638 27.724C135.536 27.6587 135.484 27.5513 135.484 27.402V24.35H133.09C132.969 24.35 132.88 24.308 132.824 24.224C132.768 24.14 132.74 24.0327 132.74 23.902C132.74 23.7807 132.768 23.678 132.824 23.594C132.88 23.5007 132.969 23.454 133.09 23.454H135.484V20.584C135.484 20.4347 135.536 20.3273 135.638 20.262C135.741 20.1967 135.858 20.164 135.988 20.164ZM132.6 27.99C133.879 27.99 134.864 28.2093 135.554 28.648C136.245 29.0773 136.59 29.712 136.59 30.552C136.59 31.392 136.245 32.0267 135.554 32.456C134.864 32.8947 133.879 33.114 132.6 33.114C131.322 33.114 130.337 32.8947 129.646 32.456C128.965 32.0267 128.624 31.392 128.624 30.552C128.624 29.712 128.965 29.0773 129.646 28.648C130.337 28.2093 131.322 27.99 132.6 27.99ZM132.6 28.83C131.583 28.83 130.832 28.984 130.346 29.292C129.87 29.6 129.632 30.02 129.632 30.552C129.632 31.084 129.87 31.504 130.346 31.812C130.832 32.12 131.583 32.274 132.6 32.274C133.618 32.274 134.369 32.12 134.854 31.812C135.34 31.504 135.582 31.084 135.582 30.552C135.582 30.02 135.34 29.6 134.854 29.292C134.369 28.984 133.618 28.83 132.6 28.83ZM142.514 20.906C143.569 20.906 144.362 21.256 144.894 21.956C145.426 22.656 145.692 23.6733 145.692 25.008C145.692 26.3427 145.426 27.36 144.894 28.06C144.362 28.76 143.569 29.11 142.514 29.11C141.46 29.11 140.662 28.76 140.12 28.06C139.588 27.36 139.322 26.3427 139.322 25.008C139.322 23.6733 139.588 22.656 140.12 21.956C140.662 21.256 141.46 20.906 142.514 20.906ZM142.514 21.816C141.749 21.816 141.194 22.096 140.848 22.656C140.503 23.2067 140.33 23.9907 140.33 25.008C140.33 26.0253 140.503 26.814 140.848 27.374C141.194 27.9247 141.749 28.2 142.514 28.2C143.28 28.2 143.835 27.9247 144.18 27.374C144.526 26.814 144.698 26.0253 144.698 25.008C144.698 23.9907 144.526 23.2067 144.18 22.656C143.835 22.096 143.28 21.816 142.514 21.816ZM148.632 20.164C148.763 20.164 148.88 20.1967 148.982 20.262C149.094 20.3273 149.15 20.4347 149.15 20.584V31.728C149.15 31.8773 149.094 31.9847 148.982 32.05C148.88 32.1153 148.763 32.148 148.632 32.148C148.502 32.148 148.385 32.1153 148.282 32.05C148.18 31.9847 148.128 31.8773 148.128 31.728V20.584C148.128 20.4347 148.18 20.3273 148.282 20.262C148.385 20.1967 148.502 20.164 148.632 20.164ZM154.403 21.018C155.336 21.018 156.022 21.354 156.461 22.026C156.899 22.698 157.119 23.692 157.119 25.008C157.119 26.324 156.899 27.318 156.461 27.99C156.022 28.662 155.336 28.998 154.403 28.998C153.469 28.998 152.779 28.662 152.331 27.99C151.892 27.318 151.673 26.324 151.673 25.008C151.673 23.692 151.892 22.698 152.331 22.026C152.779 21.354 153.469 21.018 154.403 21.018ZM154.403 21.928C153.759 21.928 153.301 22.194 153.031 22.726C152.769 23.2487 152.639 24.0093 152.639 25.008C152.639 26.0067 152.769 26.772 153.031 27.304C153.301 27.8267 153.759 28.088 154.403 28.088C155.047 28.088 155.499 27.8267 155.761 27.304C156.022 26.772 156.153 26.0067 156.153 25.008C156.153 24.0093 156.022 23.2487 155.761 22.726C155.499 22.194 155.047 21.928 154.403 21.928ZM159.345 20.304C159.466 20.304 159.573 20.3367 159.667 20.402C159.769 20.4673 159.821 20.57 159.821 20.71V31.154C159.821 31.294 159.769 31.3967 159.667 31.462C159.573 31.5273 159.466 31.56 159.345 31.56C159.214 31.56 159.097 31.5273 158.995 31.462C158.901 31.3967 158.855 31.294 158.855 31.154V25.442H156.447V24.56H158.855V20.71C158.855 20.57 158.901 20.4673 158.995 20.402C159.097 20.3367 159.214 20.304 159.345 20.304ZM161.809 20.164C161.939 20.164 162.051 20.1967 162.145 20.262C162.247 20.3273 162.299 20.43 162.299 20.57V31.742C162.299 31.882 162.247 31.9847 162.145 32.05C162.051 32.1153 161.939 32.148 161.809 32.148C161.687 32.148 161.575 32.1153 161.473 32.05C161.379 31.9847 161.333 31.882 161.333 31.742V20.57C161.333 20.43 161.379 20.3273 161.473 20.262C161.575 20.1967 161.687 20.164 161.809 20.164ZM170.085 20.682C171.429 20.682 172.46 20.9713 173.179 21.55C173.907 22.1193 174.271 22.9127 174.271 23.93C174.271 24.9473 173.907 25.7453 173.179 26.324C172.46 26.8933 171.429 27.178 170.085 27.178C168.741 27.178 167.705 26.8933 166.977 26.324C166.258 25.7453 165.899 24.9473 165.899 23.93C165.899 22.9127 166.258 22.1193 166.977 21.55C167.705 20.9713 168.741 20.682 170.085 20.682ZM170.085 21.55C169.553 21.55 169.086 21.6107 168.685 21.732C168.293 21.8533 167.966 22.0213 167.705 22.236C167.444 22.4413 167.248 22.6887 167.117 22.978C166.986 23.2673 166.921 23.5847 166.921 23.93C166.921 24.266 166.986 24.5787 167.117 24.868C167.248 25.1573 167.444 25.4093 167.705 25.624C167.966 25.8293 168.293 25.9927 168.685 26.114C169.086 26.2353 169.553 26.296 170.085 26.296C170.617 26.296 171.079 26.2353 171.471 26.114C171.872 25.9927 172.204 25.8293 172.465 25.624C172.726 25.4093 172.922 25.1573 173.053 24.868C173.184 24.5787 173.249 24.266 173.249 23.93C173.249 23.5847 173.184 23.2673 173.053 22.978C172.922 22.6887 172.726 22.4413 172.465 22.236C172.204 22.0213 171.872 21.8533 171.471 21.732C171.079 21.6107 170.617 21.55 170.085 21.55ZM167.859 27.5C167.999 27.5 168.12 27.5327 168.223 27.598C168.326 27.6633 168.377 27.7707 168.377 27.92V29.978H171.793V27.92C171.793 27.7707 171.844 27.6633 171.947 27.598C172.05 27.5327 172.166 27.5 172.297 27.5C172.428 27.5 172.544 27.5327 172.647 27.598C172.759 27.6633 172.815 27.7707 172.815 27.92V29.978H175.573C175.694 29.978 175.783 30.02 175.839 30.104C175.895 30.188 175.923 30.2907 175.923 30.412C175.923 30.5333 175.895 30.636 175.839 30.72C175.783 30.804 175.694 30.846 175.573 30.846H164.597C164.476 30.846 164.387 30.804 164.331 30.72C164.275 30.636 164.247 30.5333 164.247 30.412C164.247 30.2907 164.275 30.188 164.331 30.104C164.387 30.02 164.476 29.978 164.597 29.978H167.355V27.92C167.355 27.7707 167.406 27.6633 167.509 27.598C167.612 27.5327 167.728 27.5 167.859 27.5ZM178.459 20.71C178.627 20.71 178.762 20.752 178.865 20.836C178.968 20.9107 179.019 21.032 179.019 21.2L178.893 28.018C178.893 28.1767 178.851 28.2933 178.767 28.368C178.683 28.4333 178.58 28.466 178.459 28.466C178.328 28.466 178.221 28.4333 178.137 28.368C178.062 28.2933 178.02 28.1767 178.011 28.018L177.899 21.2C177.89 21.032 177.936 20.9107 178.039 20.836C178.151 20.752 178.291 20.71 178.459 20.71ZM178.459 29.81C178.674 29.81 178.856 29.8893 179.005 30.048C179.164 30.1973 179.243 30.3793 179.243 30.594C179.243 30.8087 179.164 30.9907 179.005 31.14C178.856 31.2893 178.674 31.364 178.459 31.364C178.235 31.364 178.048 31.2893 177.899 31.14C177.75 30.9907 177.675 30.8087 177.675 30.594C177.675 30.3793 177.75 30.1973 177.899 30.048C178.048 29.8893 178.235 29.81 178.459 29.81Z" fill="white"/>
<path d="M92.9142 10L104.086 10C104.977 10 105.423 8.92286 104.793 8.29289L99.2071 2.70711C98.8166 2.31658 98.1834 2.31658 97.7929 2.70711L92.2071 8.29289C91.5771 8.92286 92.0233 10 92.9142 10Z" fill="#FF6C9A"/>
</g>
<defs>
<filter id="filter0_diii_988_2073" x="0.5" y="-2" width="196" height="53" filterUnits="userSpaceOnUse" color-interpolation-filters="sRGB">
<feFlood flood-opacity="0" result="BackgroundImageFix"/>
<feColorMatrix in="SourceAlpha" type="matrix" values="0 0 0 0 0 0 0 0 0 0 0 0 0 0 0 0 0 0 127 0" result="hardAlpha"/>
<feOffset dy="2"/>
<feGaussianBlur stdDeviation="2"/>
<feComposite in2="hardAlpha" operator="out"/>
<feColorMatrix type="matrix" values="0 0 0 0 0 0 0 0 0 0 0 0 0 0 0 0 0 0 0.2 0"/>
<feBlend mode="normal" in2="BackgroundImageFix" result="effect1_dropShadow_988_2073"/>
<feBlend mode="normal" in="SourceGraphic" in2="effect1_dropShadow_988_2073" result="shape"/>
<feColorMatrix in="SourceAlpha" type="matrix" values="0 0 0 0 0 0 0 0 0 0 0 0 0 0 0 0 0 0 127 0" result="hardAlpha"/>
<feOffset dx="2" dy="4"/>
<feGaussianBlur stdDeviation="4"/>
<feComposite in2="hardAlpha" operator="arithmetic" k2="-1" k3="1"/>
<feColorMatrix type="matrix" values="0 0 0 0 1 0 0 0 0 1 0 0 0 0 1 0 0 0 0.25 0"/>
<feBlend mode="normal" in2="shape" result="effect2_innerShadow_988_2073"/>
<feColorMatrix in="SourceAlpha" type="matrix" values="0 0 0 0 0 0 0 0 0 0 0 0 0 0 0 0 0 0 127 0" result="hardAlpha"/>
<feOffset dx="-2" dy="-2"/>
<feGaussianBlur stdDeviation="4"/>
<feComposite in2="hardAlpha" operator="arithmetic" k2="-1" k3="1"/>
<feColorMatrix type="matrix" values="0 0 0 0 0 0 0 0 0 0 0 0 0 0 0 0 0 0 0.2 0"/>
<feBlend mode="normal" in2="effect2_innerShadow_988_2073" result="effect3_innerShadow_988_2073"/>
<feColorMatrix in="SourceAlpha" type="matrix" values="0 0 0 0 0 0 0 0 0 0 0 0 0 0 0 0 0 0 127 0" result="hardAlpha"/>
<feOffset dx="-2" dy="-4"/>
<feGaussianBlur stdDeviation="6"/>
<feComposite in2="hardAlpha" operator="arithmetic" k2="-1" k3="1"/>
<feColorMatrix type="matrix" values="0 0 0 0 1 0 0 0 0 1 0 0 0 0 1 0 0 0 0.1 0"/>
<feBlend mode="normal" in2="effect3_innerShadow_988_2073" result="effect4_innerShadow_988_2073"/>
</filter>
</defs>
</svg>
