<svg width="196" height="51" viewBox="0 0 196 51" fill="none" xmlns="http://www.w3.org/2000/svg">
<g filter="url(#filter0_diii_988_2068)">
<path d="M4 24C4 15.1634 11.1634 8 20 8H176C184.837 8 192 15.1634 192 24V29C192 37.8366 184.837 45 176 45H20C11.1634 45 4 37.8366 4 29V24Z" fill="#FF6C9A" shape-rendering="crispEdges"/>
<path d="M22.0008 21.13C22.3648 21.13 22.6168 21.2 22.7568 21.34C22.8968 21.4707 22.9668 21.7133 22.9668 22.068V27.948C22.9668 28.3027 22.8968 28.55 22.7568 28.69C22.6168 28.8207 22.3648 28.886 22.0008 28.886H18.0808C17.7168 28.886 17.4648 28.8207 17.3248 28.69C17.1848 28.55 17.1148 28.3027 17.1148 27.948V22.068C17.1148 21.7133 17.1848 21.4707 17.3248 21.34C17.4648 21.2 17.7168 21.13 18.0808 21.13H22.0008ZM18.3888 22.012C18.2114 22.012 18.1228 22.096 18.1228 22.264V27.752C18.1228 27.92 18.2114 28.004 18.3888 28.004H21.6788C21.8561 28.004 21.9448 27.92 21.9448 27.752V22.264C21.9448 22.096 21.8561 22.012 21.6788 22.012H18.3888ZM25.8508 20.164C25.9814 20.164 26.0981 20.1967 26.2008 20.262C26.3128 20.3273 26.3688 20.4347 26.3688 20.584V24.49H28.1468C28.2774 24.49 28.3708 24.5367 28.4268 24.63C28.4828 24.714 28.5108 24.8167 28.5108 24.938C28.5108 25.0687 28.4828 25.1807 28.4268 25.274C28.3708 25.358 28.2774 25.4 28.1468 25.4H26.3688V31.728C26.3688 31.8773 26.3128 31.9847 26.2008 32.05C26.0981 32.1153 25.9814 32.148 25.8508 32.148C25.7201 32.148 25.6034 32.1153 25.5008 32.05C25.3981 31.9847 25.3468 31.8773 25.3468 31.728V20.584C25.3468 20.4347 25.3981 20.3273 25.5008 20.262C25.6034 20.1967 25.7201 20.164 25.8508 20.164ZM36.577 21.158C36.6983 21.158 36.787 21.2 36.843 21.284C36.899 21.368 36.927 21.4753 36.927 21.606C36.927 21.7273 36.899 21.8347 36.843 21.928C36.787 22.012 36.6983 22.054 36.577 22.054H33.973V23.664C33.973 23.972 33.9916 24.252 34.029 24.504C34.0663 24.7467 34.127 24.9753 34.211 25.19C34.295 25.3953 34.407 25.6007 34.547 25.806C34.6963 26.0113 34.883 26.226 35.107 26.45C35.4243 26.7673 35.737 27.0753 36.045 27.374C36.353 27.6633 36.633 27.9153 36.885 28.13C36.9876 28.2233 37.0296 28.3353 37.011 28.466C37.0016 28.5873 36.9596 28.69 36.885 28.774C36.7916 28.858 36.6843 28.914 36.563 28.942C36.451 28.9607 36.3436 28.9187 36.241 28.816C36.0076 28.62 35.7556 28.3913 35.485 28.13C35.2143 27.8687 34.9203 27.5793 34.603 27.262C34.379 27.038 34.197 26.8467 34.057 26.688C33.9263 26.5293 33.819 26.3893 33.735 26.268C33.651 26.1467 33.5903 26.044 33.553 25.96C33.5156 25.8667 33.4876 25.7827 33.469 25.708H33.455C33.4363 25.792 33.4083 25.8807 33.371 25.974C33.3336 26.058 33.273 26.1607 33.189 26.282C33.105 26.4033 32.993 26.5433 32.853 26.702C32.713 26.8607 32.5356 27.052 32.321 27.276C32.0036 27.5933 31.7003 27.892 31.411 28.172C31.1216 28.4427 30.8136 28.718 30.487 28.998C30.375 29.1007 30.2583 29.138 30.137 29.11C30.0156 29.082 29.9176 29.026 29.843 28.942C29.759 28.8393 29.7123 28.7273 29.703 28.606C29.6936 28.4847 29.7403 28.382 29.843 28.298C30.1976 27.99 30.5336 27.6867 30.851 27.388C31.1683 27.08 31.4856 26.7673 31.803 26.45C32.027 26.226 32.209 26.0113 32.349 25.806C32.4983 25.6007 32.615 25.3953 32.699 25.19C32.783 24.9753 32.8436 24.7467 32.881 24.504C32.9183 24.252 32.937 23.972 32.937 23.664V22.054H30.277C30.1556 22.054 30.067 22.012 30.011 21.928C29.955 21.8347 29.927 21.7273 29.927 21.606C29.927 21.4753 29.955 21.368 30.011 21.284C30.067 21.2 30.1556 21.158 30.277 21.158H36.577ZM39.195 20.164C39.3256 20.164 39.4423 20.1967 39.545 20.262C39.657 20.3273 39.713 20.4347 39.713 20.584V31.728C39.713 31.8773 39.657 31.9847 39.545 32.05C39.4423 32.1153 39.3256 32.148 39.195 32.148C39.0643 32.148 38.9476 32.1153 38.845 32.05C38.7423 31.9847 38.691 31.8773 38.691 31.728V20.584C38.691 20.4347 38.7423 20.3273 38.845 20.262C38.9476 20.1967 39.0643 20.164 39.195 20.164ZM47.4292 20.878C47.7932 20.878 48.0452 20.948 48.1852 21.088C48.3252 21.2187 48.3952 21.4613 48.3952 21.816V25.652C48.3952 26.0067 48.3252 26.254 48.1852 26.394C48.0452 26.5247 47.7932 26.59 47.4292 26.59H43.5652C43.2012 26.59 42.9492 26.5247 42.8092 26.394C42.6692 26.254 42.5992 26.0067 42.5992 25.652V21.816C42.5992 21.4613 42.6692 21.2187 42.8092 21.088C42.9492 20.948 43.2012 20.878 43.5652 20.878H47.4292ZM43.8732 21.76C43.7705 21.76 43.7005 21.7787 43.6632 21.816C43.6258 21.844 43.6072 21.9093 43.6072 22.012V25.442C43.6072 25.6193 43.6958 25.708 43.8732 25.708H47.1212C47.2985 25.708 47.3872 25.6193 47.3872 25.442V22.012C47.3872 21.9093 47.3685 21.844 47.3312 21.816C47.2938 21.7787 47.2238 21.76 47.1212 21.76H43.8732ZM51.3352 20.164C51.4658 20.164 51.5825 20.1967 51.6852 20.262C51.7972 20.3273 51.8532 20.4347 51.8532 20.584V23.272H53.6312C53.7618 23.272 53.8552 23.3187 53.9112 23.412C53.9672 23.496 53.9952 23.6033 53.9952 23.734C53.9952 23.8553 53.9672 23.9627 53.9112 24.056C53.8552 24.14 53.7618 24.182 53.6312 24.182H51.8532V27.234C51.8532 27.3833 51.7972 27.4907 51.6852 27.556C51.5825 27.6213 51.4658 27.654 51.3352 27.654C51.2045 27.654 51.0878 27.6213 50.9852 27.556C50.8825 27.4907 50.8312 27.3833 50.8312 27.234V20.584C50.8312 20.4347 50.8825 20.3273 50.9852 20.262C51.0878 20.1967 51.2045 20.164 51.3352 20.164ZM50.8872 28.368C51.2512 28.368 51.5032 28.438 51.6432 28.578C51.7832 28.7087 51.8532 28.9513 51.8532 29.306V32.652C51.8532 32.8013 51.7972 32.9087 51.6852 32.974C51.5825 33.0393 51.4658 33.072 51.3352 33.072C51.2045 33.072 51.0878 33.0393 50.9852 32.974C50.8825 32.9087 50.8312 32.8013 50.8312 32.652V29.502C50.8312 29.334 50.7425 29.25 50.5652 29.25H44.1532C44.0318 29.25 43.9432 29.208 43.8872 29.124C43.8312 29.04 43.8032 28.9373 43.8032 28.816C43.8032 28.6853 43.8312 28.578 43.8872 28.494C43.9432 28.41 44.0318 28.368 44.1532 28.368H50.8872ZM67.2973 20.92C67.6613 20.92 67.9133 20.99 68.0533 21.13C68.1933 21.2607 68.2633 21.5033 68.2633 21.858V23.678C68.2633 24.0327 68.1933 24.28 68.0533 24.42C67.9133 24.5507 67.6613 24.616 67.2973 24.616H61.2913C61.114 24.616 61.0253 24.7047 61.0253 24.882V26.352C61.0253 26.52 61.114 26.604 61.2913 26.604H68.2493C68.3707 26.604 68.4593 26.646 68.5153 26.73C68.5713 26.814 68.5993 26.9167 68.5993 27.038C68.5993 27.1593 68.5713 27.2667 68.5153 27.36C68.4593 27.444 68.3707 27.486 68.2493 27.486H60.9833C60.6193 27.486 60.3673 27.4207 60.2273 27.29C60.0873 27.15 60.0173 26.9027 60.0173 26.548V24.714C60.0173 24.3593 60.0873 24.1167 60.2273 23.986C60.3673 23.846 60.6193 23.776 60.9833 23.776H67.0033C67.1807 23.776 67.2693 23.6873 67.2693 23.51V22.054C67.2693 21.8767 67.1807 21.788 67.0033 21.788H60.3393C60.218 21.788 60.1293 21.746 60.0733 21.662C60.0173 21.578 59.9893 21.4753 59.9893 21.354C59.9893 21.2327 60.0173 21.13 60.0733 21.046C60.1293 20.962 60.218 20.92 60.3393 20.92H67.2973ZM64.6653 29.964H69.6213C69.752 29.964 69.8453 30.006 69.9013 30.09C69.9573 30.174 69.9853 30.2813 69.9853 30.412C69.9853 30.5333 69.9573 30.636 69.9013 30.72C69.8453 30.804 69.752 30.846 69.6213 30.846H58.6733C58.5427 30.846 58.4493 30.804 58.3933 30.72C58.3373 30.636 58.3093 30.5333 58.3093 30.412C58.3093 30.2813 58.3373 30.174 58.3933 30.09C58.4493 30.006 58.5427 29.964 58.6733 29.964H63.6433V27.01H64.6653V29.964ZM79.9835 21.144C80.3475 21.144 80.5995 21.214 80.7395 21.354C80.8795 21.4847 80.9495 21.7273 80.9495 22.082V23.328C80.9495 24.2707 80.9122 25.1527 80.8375 25.974C80.7629 26.786 80.6369 27.5933 80.4595 28.396C80.4409 28.5267 80.3709 28.62 80.2495 28.676C80.1375 28.732 80.0069 28.746 79.8575 28.718C79.7269 28.6993 79.6195 28.648 79.5355 28.564C79.4609 28.4707 79.4375 28.3633 79.4655 28.242C79.6242 27.4113 79.7409 26.604 79.8155 25.82C79.8995 25.036 79.9415 24.266 79.9415 23.51V22.306C79.9415 22.2033 79.9182 22.138 79.8715 22.11C79.8342 22.0727 79.7689 22.054 79.6755 22.054H72.9415C72.8109 22.054 72.7175 22.012 72.6615 21.928C72.6055 21.8347 72.5775 21.7227 72.5775 21.592C72.5775 21.4613 72.6055 21.354 72.6615 21.27C72.7175 21.186 72.8109 21.144 72.9415 21.144H79.9835ZM82.3635 29.95C82.4942 29.95 82.5875 29.9967 82.6435 30.09C82.6995 30.174 82.7275 30.2813 82.7275 30.412C82.7275 30.5333 82.6995 30.636 82.6435 30.72C82.5875 30.804 82.4942 30.846 82.3635 30.846H71.4155C71.2849 30.846 71.1915 30.804 71.1355 30.72C71.0795 30.636 71.0515 30.5333 71.0515 30.412C71.0515 30.2813 71.0795 30.174 71.1355 30.09C71.1915 29.9967 71.2849 29.95 71.4155 29.95H82.3635ZM87.5177 20.808C88.0497 20.808 88.5117 20.892 88.9037 21.06C89.3051 21.2187 89.6364 21.4427 89.8977 21.732C90.1591 22.0213 90.3551 22.3573 90.4857 22.74C90.6164 23.1227 90.6817 23.538 90.6817 23.986C90.6817 24.4247 90.6164 24.84 90.4857 25.232C90.3551 25.6147 90.1591 25.9507 89.8977 26.24C89.6364 26.52 89.3051 26.744 88.9037 26.912C88.5117 27.0707 88.0497 27.15 87.5177 27.15C86.9857 27.15 86.5191 27.0707 86.1177 26.912C85.7257 26.744 85.3991 26.52 85.1377 26.24C84.8764 25.9507 84.6804 25.6147 84.5497 25.232C84.4191 24.84 84.3537 24.4247 84.3537 23.986C84.3537 23.538 84.4191 23.1227 84.5497 22.74C84.6804 22.3573 84.8764 22.0213 85.1377 21.732C85.3991 21.4427 85.7257 21.2187 86.1177 21.06C86.5191 20.892 86.9857 20.808 87.5177 20.808ZM87.5177 21.69C87.1257 21.69 86.7944 21.7553 86.5237 21.886C86.2531 22.0073 86.0291 22.1753 85.8517 22.39C85.6744 22.5953 85.5437 22.838 85.4597 23.118C85.3851 23.3887 85.3477 23.678 85.3477 23.986C85.3477 24.294 85.3851 24.588 85.4597 24.868C85.5437 25.1387 85.6744 25.3813 85.8517 25.596C86.0291 25.8013 86.2531 25.9647 86.5237 26.086C86.7944 26.2073 87.1257 26.268 87.5177 26.268C87.9097 26.268 88.2411 26.2073 88.5117 26.086C88.7824 25.9647 89.0064 25.8013 89.1837 25.596C89.3611 25.3813 89.4871 25.1387 89.5617 24.868C89.6457 24.588 89.6877 24.294 89.6877 23.986C89.6877 23.678 89.6457 23.3887 89.5617 23.118C89.4871 22.838 89.3611 22.5953 89.1837 22.39C89.0064 22.1753 88.7824 22.0073 88.5117 21.886C88.2411 21.7553 87.9097 21.69 87.5177 21.69ZM93.6777 20.164C93.8084 20.164 93.9251 20.1967 94.0277 20.262C94.1304 20.3273 94.1817 20.4347 94.1817 20.584V29.124C94.1817 29.2733 94.1304 29.3807 94.0277 29.446C93.9251 29.5113 93.8084 29.544 93.6777 29.544C93.5471 29.544 93.4257 29.5113 93.3137 29.446C93.2111 29.3807 93.1597 29.2733 93.1597 29.124V20.584C93.1597 20.4347 93.2111 20.3273 93.3137 20.262C93.4257 20.1967 93.5471 20.164 93.6777 20.164ZM86.7617 28.452C86.8924 28.452 87.0091 28.4847 87.1117 28.55C87.2237 28.6153 87.2797 28.7227 87.2797 28.872V31.616C87.2797 31.784 87.3684 31.868 87.5457 31.868H94.1817C94.3124 31.868 94.4057 31.91 94.4617 31.994C94.5177 32.0873 94.5457 32.1947 94.5457 32.316C94.5457 32.4373 94.5177 32.54 94.4617 32.624C94.4057 32.7173 94.3124 32.764 94.1817 32.764H87.2097C86.8457 32.764 86.5937 32.694 86.4537 32.554C86.3137 32.4233 86.2437 32.1807 86.2437 31.826V28.872C86.2437 28.7227 86.2951 28.6153 86.3977 28.55C86.5097 28.4847 86.6311 28.452 86.7617 28.452ZM100.33 23.538C101.245 23.538 101.954 23.748 102.458 24.168C102.971 24.5787 103.228 25.1293 103.228 25.82C103.228 26.5107 102.971 27.066 102.458 27.486C101.954 27.8967 101.245 28.102 100.33 28.102C99.4152 28.102 98.7012 27.8967 98.1879 27.486C97.6839 27.066 97.4319 26.5107 97.4319 25.82C97.4319 25.1293 97.6839 24.5787 98.1879 24.168C98.7012 23.748 99.4152 23.538 100.33 23.538ZM100.33 20.136C100.461 20.136 100.577 20.1687 100.68 20.234C100.792 20.2993 100.848 20.4067 100.848 20.556V21.662H103.634C103.765 21.662 103.858 21.704 103.914 21.788C103.97 21.872 103.998 21.9747 103.998 22.096C103.998 22.2267 103.97 22.334 103.914 22.418C103.858 22.502 103.765 22.544 103.634 22.544H96.8859C96.7552 22.544 96.6619 22.502 96.6059 22.418C96.5499 22.334 96.5219 22.2267 96.5219 22.096C96.5219 21.9747 96.5499 21.872 96.6059 21.788C96.6619 21.704 96.7552 21.662 96.8859 21.662H99.8119V20.556C99.8119 20.4067 99.8632 20.2993 99.9659 20.234C100.078 20.1687 100.199 20.136 100.33 20.136ZM100.33 24.364C99.6952 24.364 99.2099 24.4993 98.8739 24.77C98.5379 25.0313 98.3699 25.3813 98.3699 25.82C98.3699 26.2587 98.5379 26.6133 98.8739 26.884C99.2099 27.1453 99.6952 27.276 100.33 27.276C100.965 27.276 101.45 27.1453 101.786 26.884C102.122 26.6133 102.29 26.2587 102.29 25.82C102.29 25.3813 102.122 25.0313 101.786 24.77C101.45 24.4993 100.965 24.364 100.33 24.364ZM105.818 20.164C105.949 20.164 106.065 20.1967 106.168 20.262C106.271 20.3273 106.322 20.4347 106.322 20.584V23.986H108.1C108.231 23.986 108.324 24.0327 108.38 24.126C108.436 24.21 108.464 24.3127 108.464 24.434C108.464 24.5553 108.436 24.6627 108.38 24.756C108.324 24.84 108.231 24.882 108.1 24.882H106.322V29.264C106.322 29.4133 106.271 29.5207 106.168 29.586C106.065 29.6513 105.949 29.684 105.818 29.684C105.687 29.684 105.571 29.6513 105.468 29.586C105.365 29.5207 105.314 29.4133 105.314 29.264V20.584C105.314 20.4347 105.365 20.3273 105.468 20.262C105.571 20.1967 105.687 20.164 105.818 20.164ZM99.0419 28.984C99.1726 28.984 99.2892 29.0167 99.3919 29.082C99.5039 29.1473 99.5599 29.2547 99.5599 29.404V31.616C99.5599 31.784 99.6486 31.868 99.8259 31.868H106.322C106.453 31.868 106.546 31.91 106.602 31.994C106.658 32.0873 106.686 32.1947 106.686 32.316C106.686 32.4373 106.658 32.54 106.602 32.624C106.546 32.7173 106.453 32.764 106.322 32.764H99.4899C99.1259 32.764 98.8739 32.694 98.7339 32.554C98.5939 32.4233 98.5239 32.1807 98.5239 31.826V29.404C98.5239 29.2547 98.5752 29.1473 98.6779 29.082C98.7899 29.0167 98.9112 28.984 99.0419 28.984ZM116.95 21.242C117.314 21.242 117.566 21.312 117.706 21.452C117.846 21.5827 117.916 21.8253 117.916 22.18V23.65C117.916 24.0793 117.897 24.4573 117.86 24.784C117.832 25.1013 117.767 25.3953 117.664 25.666C117.571 25.9273 117.431 26.1793 117.244 26.422C117.057 26.6647 116.81 26.9213 116.502 27.192C116.194 27.4627 115.811 27.766 115.354 28.102C114.906 28.4287 114.369 28.816 113.744 29.264C113.641 29.3387 113.529 29.362 113.408 29.334C113.287 29.2967 113.189 29.2267 113.114 29.124C113.039 29.0213 113.002 28.9047 113.002 28.774C113.011 28.6433 113.067 28.5407 113.17 28.466C113.749 28.0647 114.243 27.7193 114.654 27.43C115.065 27.1313 115.41 26.8653 115.69 26.632C115.97 26.3893 116.189 26.1653 116.348 25.96C116.516 25.7453 116.642 25.526 116.726 25.302C116.81 25.078 116.861 24.8307 116.88 24.56C116.908 24.2893 116.922 23.972 116.922 23.608V22.39C116.922 22.222 116.833 22.138 116.656 22.138H113.52C113.389 22.138 113.296 22.096 113.24 22.012C113.184 21.9187 113.156 21.8113 113.156 21.69C113.156 21.5687 113.184 21.466 113.24 21.382C113.296 21.2887 113.389 21.242 113.52 21.242H116.95ZM123.082 20.164C123.213 20.164 123.325 20.1967 123.418 20.262C123.521 20.3273 123.572 20.43 123.572 20.57V31.742C123.572 31.882 123.521 31.9847 123.418 32.05C123.325 32.1153 123.213 32.148 123.082 32.148C122.961 32.148 122.849 32.1153 122.746 32.05C122.653 31.9847 122.606 31.882 122.606 31.742V20.57C122.606 20.43 122.653 20.3273 122.746 20.262C122.849 20.1967 122.961 20.164 123.082 20.164ZM120.576 20.304C120.697 20.304 120.805 20.3367 120.898 20.402C121.001 20.4673 121.052 20.57 121.052 20.71V31.154C121.052 31.294 121.001 31.3967 120.898 31.462C120.805 31.5273 120.697 31.56 120.576 31.56C120.445 31.56 120.329 31.5273 120.226 31.462C120.133 31.3967 120.086 31.294 120.086 31.154V27.066H118.364C118.243 27.066 118.154 27.024 118.098 26.94C118.042 26.856 118.014 26.7487 118.014 26.618C118.014 26.4967 118.042 26.394 118.098 26.31C118.154 26.226 118.243 26.184 118.364 26.184H120.086V23.902H117.468V23.034H120.086V20.71C120.086 20.57 120.133 20.4673 120.226 20.402C120.329 20.3367 120.445 20.304 120.576 20.304ZM132.576 20.92C132.698 20.92 132.786 20.962 132.842 21.046C132.898 21.13 132.926 21.2327 132.926 21.354C132.926 21.4847 132.898 21.592 132.842 21.676C132.786 21.76 132.698 21.802 132.576 21.802H130.042V22.796C130.042 23.2813 130.117 23.6873 130.266 24.014C130.416 24.3313 130.668 24.6347 131.022 24.924C131.377 25.1947 131.708 25.4467 132.016 25.68C132.334 25.9133 132.6 26.1093 132.814 26.268C132.936 26.3613 133.001 26.4687 133.01 26.59C133.02 26.702 132.987 26.8093 132.912 26.912C132.847 27.0053 132.758 27.0707 132.646 27.108C132.534 27.1453 132.413 27.1173 132.282 27.024C132.114 26.912 131.881 26.744 131.582 26.52C131.284 26.296 130.971 26.058 130.644 25.806C130.28 25.5073 130.014 25.26 129.846 25.064C129.678 24.8587 129.576 24.6813 129.538 24.532H129.524C129.487 24.6907 129.384 24.8727 129.216 25.078C129.048 25.2833 128.778 25.5353 128.404 25.834C128.078 26.0953 127.751 26.3473 127.424 26.59C127.107 26.8233 126.813 27.0333 126.542 27.22C126.421 27.304 126.304 27.3273 126.192 27.29C126.08 27.2527 125.987 27.1873 125.912 27.094C125.838 26.9913 125.8 26.8793 125.8 26.758C125.81 26.6367 125.88 26.534 126.01 26.45C126.346 26.2073 126.678 25.9647 127.004 25.722C127.331 25.4793 127.672 25.218 128.026 24.938C128.381 24.6487 128.633 24.3453 128.782 24.028C128.932 23.7013 129.006 23.3 129.006 22.824V21.802H126.388C126.267 21.802 126.178 21.76 126.122 21.676C126.066 21.592 126.038 21.4847 126.038 21.354C126.038 21.2327 126.066 21.13 126.122 21.046C126.178 20.962 126.267 20.92 126.388 20.92H132.576ZM135.488 20.164C135.619 20.164 135.736 20.1967 135.838 20.262C135.941 20.3273 135.992 20.4347 135.992 20.584V27.402C135.992 27.5513 135.941 27.6587 135.838 27.724C135.736 27.7893 135.619 27.822 135.488 27.822C135.358 27.822 135.241 27.7893 135.138 27.724C135.036 27.6587 134.984 27.5513 134.984 27.402V24.35H132.59C132.469 24.35 132.38 24.308 132.324 24.224C132.268 24.14 132.24 24.0327 132.24 23.902C132.24 23.7807 132.268 23.678 132.324 23.594C132.38 23.5007 132.469 23.454 132.59 23.454H134.984V20.584C134.984 20.4347 135.036 20.3273 135.138 20.262C135.241 20.1967 135.358 20.164 135.488 20.164ZM132.1 27.99C133.379 27.99 134.364 28.2093 135.054 28.648C135.745 29.0773 136.09 29.712 136.09 30.552C136.09 31.392 135.745 32.0267 135.054 32.456C134.364 32.8947 133.379 33.114 132.1 33.114C130.822 33.114 129.837 32.8947 129.146 32.456C128.465 32.0267 128.124 31.392 128.124 30.552C128.124 29.712 128.465 29.0773 129.146 28.648C129.837 28.2093 130.822 27.99 132.1 27.99ZM132.1 28.83C131.083 28.83 130.332 28.984 129.846 29.292C129.37 29.6 129.132 30.02 129.132 30.552C129.132 31.084 129.37 31.504 129.846 31.812C130.332 32.12 131.083 32.274 132.1 32.274C133.118 32.274 133.869 32.12 134.354 31.812C134.84 31.504 135.082 31.084 135.082 30.552C135.082 30.02 134.84 29.6 134.354 29.292C133.869 28.984 133.118 28.83 132.1 28.83ZM142.014 20.906C143.069 20.906 143.862 21.256 144.394 21.956C144.926 22.656 145.192 23.6733 145.192 25.008C145.192 26.3427 144.926 27.36 144.394 28.06C143.862 28.76 143.069 29.11 142.014 29.11C140.96 29.11 140.162 28.76 139.62 28.06C139.088 27.36 138.822 26.3427 138.822 25.008C138.822 23.6733 139.088 22.656 139.62 21.956C140.162 21.256 140.96 20.906 142.014 20.906ZM142.014 21.816C141.249 21.816 140.694 22.096 140.348 22.656C140.003 23.2067 139.83 23.9907 139.83 25.008C139.83 26.0253 140.003 26.814 140.348 27.374C140.694 27.9247 141.249 28.2 142.014 28.2C142.78 28.2 143.335 27.9247 143.68 27.374C144.026 26.814 144.198 26.0253 144.198 25.008C144.198 23.9907 144.026 23.2067 143.68 22.656C143.335 22.096 142.78 21.816 142.014 21.816ZM148.132 20.164C148.263 20.164 148.38 20.1967 148.482 20.262C148.594 20.3273 148.65 20.4347 148.65 20.584V31.728C148.65 31.8773 148.594 31.9847 148.482 32.05C148.38 32.1153 148.263 32.148 148.132 32.148C148.002 32.148 147.885 32.1153 147.782 32.05C147.68 31.9847 147.628 31.8773 147.628 31.728V20.584C147.628 20.4347 147.68 20.3273 147.782 20.262C147.885 20.1967 148.002 20.164 148.132 20.164ZM153.903 21.018C154.836 21.018 155.522 21.354 155.961 22.026C156.399 22.698 156.619 23.692 156.619 25.008C156.619 26.324 156.399 27.318 155.961 27.99C155.522 28.662 154.836 28.998 153.903 28.998C152.969 28.998 152.279 28.662 151.831 27.99C151.392 27.318 151.173 26.324 151.173 25.008C151.173 23.692 151.392 22.698 151.831 22.026C152.279 21.354 152.969 21.018 153.903 21.018ZM153.903 21.928C153.259 21.928 152.801 22.194 152.531 22.726C152.269 23.2487 152.139 24.0093 152.139 25.008C152.139 26.0067 152.269 26.772 152.531 27.304C152.801 27.8267 153.259 28.088 153.903 28.088C154.547 28.088 154.999 27.8267 155.261 27.304C155.522 26.772 155.653 26.0067 155.653 25.008C155.653 24.0093 155.522 23.2487 155.261 22.726C154.999 22.194 154.547 21.928 153.903 21.928ZM158.845 20.304C158.966 20.304 159.073 20.3367 159.167 20.402C159.269 20.4673 159.321 20.57 159.321 20.71V31.154C159.321 31.294 159.269 31.3967 159.167 31.462C159.073 31.5273 158.966 31.56 158.845 31.56C158.714 31.56 158.597 31.5273 158.495 31.462C158.401 31.3967 158.355 31.294 158.355 31.154V25.442H155.947V24.56H158.355V20.71C158.355 20.57 158.401 20.4673 158.495 20.402C158.597 20.3367 158.714 20.304 158.845 20.304ZM161.309 20.164C161.439 20.164 161.551 20.1967 161.645 20.262C161.747 20.3273 161.799 20.43 161.799 20.57V31.742C161.799 31.882 161.747 31.9847 161.645 32.05C161.551 32.1153 161.439 32.148 161.309 32.148C161.187 32.148 161.075 32.1153 160.973 32.05C160.879 31.9847 160.833 31.882 160.833 31.742V20.57C160.833 20.43 160.879 20.3273 160.973 20.262C161.075 20.1967 161.187 20.164 161.309 20.164ZM169.585 20.682C170.929 20.682 171.96 20.9713 172.679 21.55C173.407 22.1193 173.771 22.9127 173.771 23.93C173.771 24.9473 173.407 25.7453 172.679 26.324C171.96 26.8933 170.929 27.178 169.585 27.178C168.241 27.178 167.205 26.8933 166.477 26.324C165.758 25.7453 165.399 24.9473 165.399 23.93C165.399 22.9127 165.758 22.1193 166.477 21.55C167.205 20.9713 168.241 20.682 169.585 20.682ZM169.585 21.55C169.053 21.55 168.586 21.6107 168.185 21.732C167.793 21.8533 167.466 22.0213 167.205 22.236C166.944 22.4413 166.748 22.6887 166.617 22.978C166.486 23.2673 166.421 23.5847 166.421 23.93C166.421 24.266 166.486 24.5787 166.617 24.868C166.748 25.1573 166.944 25.4093 167.205 25.624C167.466 25.8293 167.793 25.9927 168.185 26.114C168.586 26.2353 169.053 26.296 169.585 26.296C170.117 26.296 170.579 26.2353 170.971 26.114C171.372 25.9927 171.704 25.8293 171.965 25.624C172.226 25.4093 172.422 25.1573 172.553 24.868C172.684 24.5787 172.749 24.266 172.749 23.93C172.749 23.5847 172.684 23.2673 172.553 22.978C172.422 22.6887 172.226 22.4413 171.965 22.236C171.704 22.0213 171.372 21.8533 170.971 21.732C170.579 21.6107 170.117 21.55 169.585 21.55ZM167.359 27.5C167.499 27.5 167.62 27.5327 167.723 27.598C167.826 27.6633 167.877 27.7707 167.877 27.92V29.978H171.293V27.92C171.293 27.7707 171.344 27.6633 171.447 27.598C171.55 27.5327 171.666 27.5 171.797 27.5C171.928 27.5 172.044 27.5327 172.147 27.598C172.259 27.6633 172.315 27.7707 172.315 27.92V29.978H175.073C175.194 29.978 175.283 30.02 175.339 30.104C175.395 30.188 175.423 30.2907 175.423 30.412C175.423 30.5333 175.395 30.636 175.339 30.72C175.283 30.804 175.194 30.846 175.073 30.846H164.097C163.976 30.846 163.887 30.804 163.831 30.72C163.775 30.636 163.747 30.5333 163.747 30.412C163.747 30.2907 163.775 30.188 163.831 30.104C163.887 30.02 163.976 29.978 164.097 29.978H166.855V27.92C166.855 27.7707 166.906 27.6633 167.009 27.598C167.112 27.5327 167.228 27.5 167.359 27.5ZM177.959 20.71C178.127 20.71 178.262 20.752 178.365 20.836C178.468 20.9107 178.519 21.032 178.519 21.2L178.393 28.018C178.393 28.1767 178.351 28.2933 178.267 28.368C178.183 28.4333 178.08 28.466 177.959 28.466C177.828 28.466 177.721 28.4333 177.637 28.368C177.562 28.2933 177.52 28.1767 177.511 28.018L177.399 21.2C177.39 21.032 177.436 20.9107 177.539 20.836C177.651 20.752 177.791 20.71 177.959 20.71ZM177.959 29.81C178.174 29.81 178.356 29.8893 178.505 30.048C178.664 30.1973 178.743 30.3793 178.743 30.594C178.743 30.8087 178.664 30.9907 178.505 31.14C178.356 31.2893 178.174 31.364 177.959 31.364C177.735 31.364 177.548 31.2893 177.399 31.14C177.25 30.9907 177.175 30.8087 177.175 30.594C177.175 30.3793 177.25 30.1973 177.399 30.048C177.548 29.8893 177.735 29.81 177.959 29.81Z" fill="white"/>
<path d="M166.414 10L177.586 10C178.477 10 178.923 8.92286 178.293 8.29289L172.707 2.70711C172.317 2.31658 171.683 2.31658 171.293 2.70711L165.707 8.29289C165.077 8.92286 165.523 10 166.414 10Z" fill="#FF6C9A"/>
</g>
<defs>
<filter id="filter0_diii_988_2068" x="0" y="-2" width="196" height="53" filterUnits="userSpaceOnUse" color-interpolation-filters="sRGB">
<feFlood flood-opacity="0" result="BackgroundImageFix"/>
<feColorMatrix in="SourceAlpha" type="matrix" values="0 0 0 0 0 0 0 0 0 0 0 0 0 0 0 0 0 0 127 0" result="hardAlpha"/>
<feOffset dy="2"/>
<feGaussianBlur stdDeviation="2"/>
<feComposite in2="hardAlpha" operator="out"/>
<feColorMatrix type="matrix" values="0 0 0 0 0 0 0 0 0 0 0 0 0 0 0 0 0 0 0.2 0"/>
<feBlend mode="normal" in2="BackgroundImageFix" result="effect1_dropShadow_988_2068"/>
<feBlend mode="normal" in="SourceGraphic" in2="effect1_dropShadow_988_2068" result="shape"/>
<feColorMatrix in="SourceAlpha" type="matrix" values="0 0 0 0 0 0 0 0 0 0 0 0 0 0 0 0 0 0 127 0" result="hardAlpha"/>
<feOffset dx="2" dy="4"/>
<feGaussianBlur stdDeviation="4"/>
<feComposite in2="hardAlpha" operator="arithmetic" k2="-1" k3="1"/>
<feColorMatrix type="matrix" values="0 0 0 0 1 0 0 0 0 1 0 0 0 0 1 0 0 0 0.25 0"/>
<feBlend mode="normal" in2="shape" result="effect2_innerShadow_988_2068"/>
<feColorMatrix in="SourceAlpha" type="matrix" values="0 0 0 0 0 0 0 0 0 0 0 0 0 0 0 0 0 0 127 0" result="hardAlpha"/>
<feOffset dx="-2" dy="-2"/>
<feGaussianBlur stdDeviation="4"/>
<feComposite in2="hardAlpha" operator="arithmetic" k2="-1" k3="1"/>
<feColorMatrix type="matrix" values="0 0 0 0 0 0 0 0 0 0 0 0 0 0 0 0 0 0 0.2 0"/>
<feBlend mode="normal" in2="effect2_innerShadow_988_2068" result="effect3_innerShadow_988_2068"/>
<feColorMatrix in="SourceAlpha" type="matrix" values="0 0 0 0 0 0 0 0 0 0 0 0 0 0 0 0 0 0 127 0" result="hardAlpha"/>
<feOffset dx="-2" dy="-4"/>
<feGaussianBlur stdDeviation="6"/>
<feComposite in2="hardAlpha" operator="arithmetic" k2="-1" k3="1"/>
<feColorMatrix type="matrix" values="0 0 0 0 1 0 0 0 0 1 0 0 0 0 1 0 0 0 0.1 0"/>
<feBlend mode="normal" in2="effect3_innerShadow_988_2068" result="effect4_innerShadow_988_2068"/>
</filter>
</defs>
</svg>
