<svg width="32" height="32" viewBox="0 0 32 32" fill="none" xmlns="http://www.w3.org/2000/svg">
<path d="M25 25L19 19M7 14C7 14.9193 7.18106 15.8295 7.53284 16.6788C7.88463 17.5281 8.40024 18.2997 9.05025 18.9497C9.70026 19.5998 10.4719 20.1154 11.3212 20.4672C12.1705 20.8189 13.0807 21 14 21C14.9193 21 15.8295 20.8189 16.6788 20.4672C17.5281 20.1154 18.2997 19.5998 18.9497 18.9497C19.5998 18.2997 20.1154 17.5281 20.4672 16.6788C20.8189 15.8295 21 14.9193 21 14C21 13.0807 20.8189 12.1705 20.4672 11.3212C20.1154 10.4719 19.5998 9.70026 18.9497 9.05025C18.2997 8.40024 17.5281 7.88463 16.6788 7.53284C15.8295 7.18106 14.9193 7 14 7C13.0807 7 12.1705 7.18106 11.3212 7.53284C10.4719 7.88463 9.70026 8.40024 9.05025 9.05025C8.40024 9.70026 7.88463 10.4719 7.53284 11.3212C7.18106 12.1705 7 13.0807 7 14Z" stroke="#26272C" stroke-width="2" stroke-linecap="round" stroke-linejoin="round"/>
</svg>
