<svg width="24" height="24" viewBox="0 0 24 24" fill="none" xmlns="http://www.w3.org/2000/svg">
<path d="M17 4H7C5.34315 4 4 5.34315 4 7V17C4 18.6569 5.34315 20 7 20H17C18.6569 20 20 18.6569 20 17V7C20 5.34315 18.6569 4 17 4Z" stroke="#FF6C9A" stroke-width="1.6" stroke-linecap="round"/>
<path d="M15 8H9C8.44772 8 8 8.44772 8 9V11C8 11.5523 8.44772 12 9 12H15C15.5523 12 16 11.5523 16 11V9C16 8.44772 15.5523 8 15 8Z" stroke="#FF6C9A" stroke-width="1.6" stroke-linecap="round"/>
<path d="M5 12H3" stroke="#FF6C9A" stroke-width="1.6" stroke-linecap="round"/>
<path d="M5 8L3 8" stroke="#FF6C9A" stroke-width="1.6" stroke-linecap="round"/>
<path d="M5 16H3" stroke="#FF6C9A" stroke-width="1.6" stroke-linecap="round"/>
</svg>
