<svg width="24" height="24" viewBox="0 0 24 24" fill="none" xmlns="http://www.w3.org/2000/svg">
<path d="M4 5.5V4.5C4 4.22386 4.22386 4 4.5 4H5.5C5.77614 4 6 4.22386 6 4.5V5.5C6 5.77614 5.77614 6 5.5 6H4.5C4.22386 6 4 5.77614 4 5.5Z" fill="#676B79" stroke="#676B79" stroke-width="1.6"/>
<path d="M10 5.5V4.5C10 4.22386 10.2239 4 10.5 4H19.5C19.7761 4 20 4.22386 20 4.5V5.5C20 5.77614 19.7761 6 19.5 6H10.5C10.2239 6 10 5.77614 10 5.5Z" fill="#676B79" stroke="#676B79" stroke-width="1.6"/>
<path d="M4 12.5V11.5C4 11.2239 4.22386 11 4.5 11H5.5C5.77614 11 6 11.2239 6 11.5V12.5C6 12.7761 5.77614 13 5.5 13H4.5C4.22386 13 4 12.7761 4 12.5Z" fill="#676B79" stroke="#676B79" stroke-width="1.6"/>
<path d="M10 12.5V11.5C10 11.2239 10.2239 11 10.5 11H19.5C19.7761 11 20 11.2239 20 11.5V12.5C20 12.7761 19.7761 13 19.5 13H10.5C10.2239 13 10 12.7761 10 12.5Z" fill="#676B79" stroke="#676B79" stroke-width="1.6"/>
<path d="M4 19.5V18.5C4 18.2239 4.22386 18 4.5 18H5.5C5.77614 18 6 18.2239 6 18.5V19.5C6 19.7761 5.77614 20 5.5 20H4.5C4.22386 20 4 19.7761 4 19.5Z" fill="#676B79" stroke="#676B79" stroke-width="1.6"/>
<path d="M10 19.5V18.5C10 18.2239 10.2239 18 10.5 18H19.5C19.7761 18 20 18.2239 20 18.5V19.5C20 19.7761 19.7761 20 19.5 20H10.5C10.2239 20 10 19.7761 10 19.5Z" fill="#676B79" stroke="#676B79" stroke-width="1.6"/>
</svg>
