<svg width="40" height="40" viewBox="0 0 40 40" fill="none" xmlns="http://www.w3.org/2000/svg">
<path d="M15.536 11.6H9.68889C7.69778 11.6 6.70222 11.6 5.94133 12.0069C5.27234 12.3649 4.72843 12.936 4.38756 13.6384C4 14.4373 4 15.4827 4 17.5733V28.0267C4 30.1173 4 31.1627 4.38756 31.9597C4.72889 32.6635 5.27111 33.2347 5.94133 33.5931C6.70044 34 7.696 34 9.68356 34H30.3164C32.304 34 33.2978 34 34.0569 33.5931C34.7268 33.235 35.2714 32.6632 35.6124 31.9597C36 31.1627 36 30.1192 36 28.0323V17.5677C36 15.4808 36 14.4355 35.6124 13.6384C35.2711 12.9357 34.7265 12.3645 34.0569 12.0069C33.2978 11.6 32.3022 11.6 30.3111 11.6H24.4622M15.536 11.6H15.648M15.536 11.6C15.3476 11.6 15.2427 11.6 15.1591 11.5888C14.9123 11.5599 14.6739 11.477 14.4595 11.3454C14.245 11.2139 14.0592 11.0366 13.914 10.825C13.7688 10.6135 13.6674 10.3723 13.6164 10.1171C13.5653 9.86184 13.5658 9.59822 13.6178 9.3432C13.6583 9.18114 13.7058 9.02106 13.76 8.86347L13.7618 8.85227C13.8542 8.5648 13.8987 8.42293 13.9502 8.29413C14.2034 7.65742 14.6197 7.10683 15.1529 6.70351C15.6861 6.30018 16.3153 6.0599 16.9707 6.00933C17.0987 6 17.2427 6 17.5289 6H22.4676C22.7556 6 22.8996 6 23.0311 6.00933C23.6862 6.06023 24.315 6.30067 24.8478 6.70398C25.3807 7.10728 25.7967 7.65768 26.0498 8.29413C26.1013 8.42107 26.1458 8.5648 26.2382 8.85413C26.32 9.11173 26.3627 9.24053 26.3804 9.3432C26.4324 9.59808 26.4329 9.86156 26.382 10.1167C26.3311 10.3718 26.2299 10.6129 26.0849 10.8244C25.9398 11.036 25.7542 11.2133 25.54 11.3449C25.3257 11.4766 25.0876 11.5596 24.8409 11.5888C24.7149 11.5996 24.5885 11.6033 24.4622 11.6M24.4622 11.6H24.352H15.6444" stroke="currentColor" stroke-width="2" stroke-linecap="round" stroke-linejoin="round"/>
<circle cx="20.125" cy="23" r="5" stroke="currentColor" stroke-width="2"/>
</svg>
