<svg width="24" height="24" viewBox="0 0 24 24" fill="none" xmlns="http://www.w3.org/2000/svg">
<path d="M9.489 7.2H6.2C5.08 7.2 4.52 7.2 4.092 7.43253C3.71569 7.63706 3.40974 7.96341 3.218 8.3648C3 8.82133 3 9.41867 3 10.6133V16.5867C3 17.7813 3 18.3787 3.218 18.8341C3.41 19.2363 3.715 19.5627 4.092 19.7675C4.519 20 5.079 20 6.197 20H17.803C18.921 20 19.48 20 19.907 19.7675C20.2838 19.5628 20.5902 19.2361 20.782 18.8341C21 18.3787 21 17.7824 21 16.5899V10.6101C21 9.4176 21 8.82027 20.782 8.3648C20.59 7.96324 20.2837 7.63688 19.907 7.43253C19.48 7.2 18.92 7.2 17.8 7.2H14.51M9.489 7.2H9.552M9.489 7.2C9.383 7.2 9.324 7.2 9.277 7.1936C9.13815 7.17708 9.00409 7.1297 8.88346 7.05453C8.76283 6.97936 8.6583 6.87806 8.57661 6.75717C8.49493 6.63627 8.4379 6.49846 8.4092 6.35261C8.38051 6.20677 8.38078 6.05613 8.41 5.9104C8.43281 5.81779 8.4595 5.72632 8.49 5.63627L8.491 5.62987C8.543 5.4656 8.568 5.38453 8.597 5.31093C8.73943 4.94709 8.9736 4.63248 9.27351 4.402C9.57343 4.17153 9.92735 4.03423 10.296 4.00533C10.368 4 10.449 4 10.61 4H13.388C13.55 4 13.631 4 13.705 4.00533C14.0735 4.03442 14.4272 4.17181 14.7269 4.40227C15.0266 4.63273 15.2606 4.94725 15.403 5.31093C15.432 5.38347 15.457 5.4656 15.509 5.63093C15.555 5.77813 15.579 5.85173 15.589 5.9104C15.6182 6.05605 15.6185 6.20661 15.5899 6.35239C15.5613 6.49816 15.5043 6.63593 15.4227 6.75681C15.3411 6.87769 15.2367 6.97901 15.1162 7.05424C14.9957 7.12947 14.8618 7.17694 14.723 7.1936C14.6522 7.19977 14.5811 7.20191 14.51 7.2M14.51 7.2H14.448H9.55" stroke="currentColor" stroke-width="1.6" stroke-linecap="round" stroke-linejoin="round"/>
<circle cx="12" cy="14" r="3" stroke="currentColor" stroke-width="1.6"/>
</svg>
