<svg width="24" height="24" viewBox="0 0 24 24" fill="none" xmlns="http://www.w3.org/2000/svg">
<path d="M17.7946 7H9.20536C7.98737 7 7 7.98737 7 9.20536V17.7946C7 19.0126 7.98737 20 9.20536 20H17.7946C19.0126 20 20 19.0126 20 17.7946V9.20536C20 7.98737 19.0126 7 17.7946 7Z" stroke="#676B79" stroke-width="1.6" stroke-linejoin="round"/>
<path d="M17 6.16667C16.9984 5.59253 16.7696 5.04238 16.3636 4.63641C15.9576 4.23043 15.4075 4.00163 14.8333 4H6.47619C5.82006 4.00194 5.19136 4.26345 4.7274 4.7274C4.26345 5.19136 4.00194 5.82006 4 6.47619V14.8333C4.00163 15.4075 4.23043 15.9576 4.63641 16.3636C5.04238 16.7696 5.59253 16.9984 6.16667 17" stroke="#676B79" stroke-width="1.6" stroke-linecap="round" stroke-linejoin="round"/>
</svg>
