<svg width="24" height="24" viewBox="0 0 24 24" fill="none" xmlns="http://www.w3.org/2000/svg">
<path d="M4 6V2M2 4H6M20 22V20M20 20V18M20 20H18M20 20H22M12 3.00011L10.2658 7.50897C9.98381 8.2422 9.8428 8.60882 9.62353 8.9172C9.42919 9.19051 9.1904 9.4293 8.91709 9.62364C8.60871 9.84292 8.24209 9.98392 7.50886 10.2659L3 12.0001L7.50886 13.7343C8.24209 14.0163 8.60871 14.1573 8.91709 14.3766C9.1904 14.5709 9.42919 14.8097 9.62353 15.083C9.84281 15.3914 9.98381 15.758 10.2658 16.4912L12 21.0001L13.7342 16.4912C14.0162 15.758 14.1572 15.3914 14.3765 15.083C14.5708 14.8097 14.8096 14.5709 15.0829 14.3766C15.3913 14.1573 15.7579 14.0163 16.4911 13.7343L21 12.0001L16.4911 10.2659C15.7579 9.98392 15.3913 9.84291 15.0829 9.62364C14.8096 9.4293 14.5708 9.19051 14.3765 8.9172C14.1572 8.60882 14.0162 8.2422 13.7342 7.50897L12 3.00011Z" stroke="#FF6C9A" stroke-width="1.6" stroke-linecap="round" stroke-linejoin="round"/>
</svg>
