<svg width="24" height="24" viewBox="0 0 24 24" fill="none" xmlns="http://www.w3.org/2000/svg">
<path d="M21 7C21 7 22 8 22 10C22 12 21 13 21 13M10.25 5.61424H6.8C5.11984 5.61424 4.27976 5.61424 3.63803 5.94104C3.07354 6.22851 2.6146 6.6872 2.32698 7.25139C2 7.89278 2 8.73241 2 10.4117L2 11.611C2 12.5424 2 13.0081 2.15224 13.3755C2.35523 13.8652 2.74458 14.2544 3.23463 14.4573C3.60218 14.6094 4.06812 14.6094 5 14.6094V18.8572C5 19.0892 5 19.2052 5.00963 19.3029C5.10316 20.252 5.85441 20.8969 6.80397 20.9904C6.90175 21 7.01783 21 7.25 21C7.48217 21 7.59826 21 7.69604 20.9904C8.64559 20.8969 9.39685 20.252 9.49037 19.3029C9.5 19.2052 9.5 19.0892 9.5 18.8572V14.6094H10.25C12.0164 14.6094 13.6772 15.5558 15.3443 16.4641C16.3168 16.9939 16.8031 17.2589 17.1216 17.2199C17.4169 17.1837 17.6402 17.0512 17.8133 16.8094C18 16.5485 18 16.0267 18 14.9829V5.24072C18 4.19699 18 3.67512 17.8133 3.4143C17.6402 3.17244 17.4169 3.03991 17.1216 3.00376C16.8031 2.96477 16.3168 3.22971 15.3443 3.75958C13.6772 4.66785 12.0164 5.61424 10.25 5.61424Z" stroke="#26272C" stroke-width="1.6" stroke-linecap="round" stroke-linejoin="round"/>
</svg>
