<svg width="24" height="24" viewBox="0 0 24 24" fill="none" xmlns="http://www.w3.org/2000/svg">
<path d="M13.1562 3.03516L13.3659 2.26311L13.3655 2.26301L13.1562 3.03516ZM13.8291 3.64355L14.5766 3.35852L14.5765 3.3583L13.8291 3.64355ZM13.9219 4.22559L13.1258 4.305L13.9219 4.22559ZM14.1006 5.26367L13.394 5.63885L13.394 5.63885L14.1006 5.26367ZM15.2764 5.75098L15.5104 6.51599L15.5104 6.51597L15.2764 5.75098ZM16.1377 5.14258L15.6312 4.52332V4.52332L16.1377 5.14258ZM16.6152 4.79688L16.2889 4.06645L16.2887 4.06657L16.6152 4.79688ZM17.5205 4.84277L17.9183 4.14869L17.918 4.14851L17.5205 4.84277ZM17.9619 5.23438L17.3962 5.80006L17.9619 5.23438ZM18.7656 6.03809L19.3313 5.4724L18.7656 6.03809ZM19.1572 6.47852L19.8513 6.08078L19.8511 6.08042L19.1572 6.47852ZM19.2021 7.38477L19.9323 7.71172L19.9323 7.71167L19.2021 7.38477ZM18.8564 7.8623L18.2375 7.3555L18.8564 7.8623ZM18.249 8.72168L17.4844 8.48655L17.4842 8.48714L18.249 8.72168ZM18.7354 9.89844L18.3599 10.6048L18.3599 10.6049L18.7354 9.89844ZM19.7744 10.0771L19.8542 9.28114L19.7744 10.0771ZM20.3574 10.1709L20.6433 9.42373L20.6433 9.42372L20.3574 10.1709ZM20.9648 10.8428L21.7369 10.6331L21.7368 10.6329L20.9648 10.8428ZM21 12.5684H21.8H21ZM20.9648 13.1572L21.7368 13.3672L21.7368 13.367L20.9648 13.1572ZM20.3574 13.8291L20.643 14.5764L20.6433 14.5763L20.3574 13.8291ZM19.7744 13.9219L19.6948 13.1258L19.7744 13.9219ZM18.7354 14.1016L18.3599 13.3952L18.3597 13.3952L18.7354 14.1016ZM18.249 15.2773L17.484 15.5115L17.4843 15.5122L18.249 15.2773ZM18.8564 16.1377L18.2374 16.6444L18.8564 16.1377ZM19.2021 16.6152L19.9324 16.2885L19.9322 16.2881L19.2021 16.6152ZM19.1572 17.5205L19.8515 17.918L19.8515 17.9179L19.1572 17.5205ZM18.7666 17.9619L19.3323 18.5276L19.3324 18.5275L18.7666 17.9619ZM17.9629 18.7656L17.3972 18.1999L17.3971 18.2L17.9629 18.7656ZM17.5215 19.1572L17.9189 19.8515L17.9194 19.8513L17.5215 19.1572ZM16.6172 19.2031L16.2911 19.9336L16.2915 19.9338L16.6172 19.2031ZM16.1377 18.8564L16.6442 18.2372L16.1377 18.8564ZM15.2764 18.248L15.5105 17.4831L15.5102 17.483L15.2764 18.248ZM14.1006 18.7354L13.3941 18.36L13.394 18.3602L14.1006 18.7354ZM13.9219 19.7744L14.7179 19.8538L13.9219 19.7744ZM13.8291 20.3564L14.5765 20.6418L14.5766 20.6414L13.8291 20.3564ZM13.1572 20.9648L13.367 21.7368L13.3674 21.7368L13.1572 20.9648ZM12.5684 21V21.8V21ZM10.8418 20.9648L10.6319 21.7368L10.6321 21.7369L10.8418 20.9648ZM10.1699 20.3574L9.42273 20.6433L9.42276 20.6433L10.1699 20.3574ZM10.0762 19.7744L10.8722 19.6946L10.0762 19.7744ZM9.89746 18.7363L10.6041 18.3614L10.6039 18.3609L9.89746 18.7363ZM8.72168 18.249L8.48765 17.484L8.48729 17.4841L8.72168 18.249ZM7.86133 18.8564L7.35465 18.2374L7.86133 18.8564ZM7.38379 19.2021L7.71052 19.9324L7.71058 19.9324L7.38379 19.2021ZM6.47852 19.1572L6.08066 19.8513L6.08096 19.8515L6.47852 19.1572ZM6.03711 18.7656L6.6029 18.2L6.60279 18.1999L6.03711 18.7656ZM5.2334 17.9619L4.6676 18.5275L4.66771 18.5276L5.2334 17.9619ZM4.8418 17.5205L4.14744 17.9178L4.14745 17.9179L4.8418 17.5205ZM4.79688 16.6162L4.06644 16.2899L4.06629 16.2902L4.79688 16.6162ZM5.14258 16.1377L4.52332 15.6312L5.14258 16.1377ZM5.75098 15.2764L6.51597 15.5104L6.51599 15.5104L5.75098 15.2764ZM5.26367 14.1006L5.63885 13.394L5.63885 13.394L5.26367 14.1006ZM4.22559 13.9219L4.305 13.1258L4.22559 13.9219ZM3.64355 13.8291L3.3583 14.5765L3.35852 14.5766L3.64355 13.8291ZM3.03516 13.1562L2.26301 13.3655L2.26311 13.3659L3.03516 13.1562ZM3 12.5684H2.2H3ZM3.03516 10.8428L2.2632 10.6328L2.26312 10.6331L3.03516 10.8428ZM3.64258 10.1709L3.35668 9.42373L3.35663 9.42375L3.64258 10.1709ZM4.22559 10.0771L4.30541 10.8732L4.22559 10.0771ZM5.26465 9.89844L5.63997 10.6049L5.64046 10.6047L5.26465 9.89844ZM5.75098 8.72266L6.51603 8.4888L6.5159 8.48838L5.75098 8.72266ZM5.14355 7.86133L5.76273 7.35475L5.14355 7.86133ZM4.79785 7.38379L4.06747 7.7102L4.06766 7.71063L4.79785 7.38379ZM4.84277 6.47852L4.14861 6.08084L4.14858 6.08091L4.84277 6.47852ZM5.23438 6.03711L4.66903 5.47108L4.6688 5.47132L5.23438 6.03711ZM6.03906 5.2334L6.6044 5.79943L6.60464 5.79919L6.03906 5.2334ZM6.47949 4.84277L6.08191 4.14857L6.08183 4.14861L6.47949 4.84277ZM7.38477 4.79688L7.71148 4.06663L7.71141 4.0666L7.38477 4.79688ZM7.86133 5.14258L8.36788 4.52338L7.86133 5.14258ZM8.72168 5.75L8.48706 6.51482L8.48745 6.51494L8.72168 5.75ZM9.89746 5.2627L10.604 5.63798L10.604 5.63796L9.89746 5.2627ZM10.0762 4.22461L9.28015 4.14497L10.0762 4.22461ZM10.1699 3.64355L9.42257 3.35814L9.42243 3.3585L10.1699 3.64355ZM10.8418 3.03516L10.6322 2.2631L10.6319 2.26319L10.8418 3.03516ZM12 8.39941L12 7.59941H12V8.39941ZM8.39941 12H7.59941V12L8.39941 12ZM12 15.5996V16.3996H12L12 15.5996ZM15.5996 12L16.3996 12V12H15.5996ZM12.5684 3V3.8C12.7284 3.8 12.8214 3.80028 12.8906 3.80359C12.9547 3.80666 12.9611 3.81113 12.947 3.80731L13.1562 3.03516L13.3655 2.26301C13.1088 2.19345 12.8255 2.2 12.5684 2.2V3ZM13.1562 3.03516L12.9466 3.8072C13.0092 3.8242 13.0592 3.86997 13.0817 3.9288L13.8291 3.64355L14.5765 3.3583C14.3711 2.81994 13.9202 2.41362 13.3659 2.26311L13.1562 3.03516ZM13.8291 3.64355L13.0816 3.92859C13.076 3.91377 13.081 3.91883 13.0903 3.98297C13.1005 4.05221 13.1098 4.14475 13.1258 4.305L13.9219 4.22559L14.7179 4.14617C14.6927 3.89342 14.6716 3.60778 14.5766 3.35852L13.8291 3.64355ZM13.9219 4.22559L13.1258 4.305C13.1536 4.58383 13.1776 4.82616 13.2078 5.01926C13.2371 5.20611 13.2832 5.43017 13.394 5.63885L14.1006 5.26367L14.8072 4.88849C14.8257 4.92335 14.8112 4.91645 14.7885 4.77176C14.7669 4.63331 14.7476 4.44351 14.7179 4.14617L13.9219 4.22559ZM14.1006 5.26367L13.394 5.63885C13.7984 6.40033 14.6859 6.76818 15.5104 6.51599L15.2764 5.75098L15.0424 4.98597C14.9507 5.01399 14.8521 4.9731 14.8072 4.88849L14.1006 5.26367ZM15.2764 5.75098L15.5104 6.51597C15.7369 6.44669 15.9283 6.32037 16.0809 6.20902C16.2388 6.09382 16.4273 5.93921 16.6442 5.76184L16.1377 5.14258L15.6312 4.52332C15.3995 4.71283 15.2514 4.83363 15.1378 4.91652C15.019 5.00324 15.0041 4.99768 15.0423 4.98598L15.2764 5.75098ZM16.1377 5.14258L16.6442 5.76184C16.7687 5.65998 16.8408 5.60119 16.8969 5.55954C16.9488 5.52096 16.9561 5.52081 16.9418 5.52718L16.6152 4.79688L16.2887 4.06657C16.0452 4.17546 15.8285 4.36198 15.6312 4.52332L16.1377 5.14258ZM16.6152 4.79688L16.9415 5.5273C16.9987 5.50177 17.0665 5.50467 17.123 5.53703L17.5205 4.84277L17.918 4.14851C17.4204 3.8636 16.8148 3.83152 16.2889 4.06645L16.6152 4.79688ZM17.5205 4.84277L17.1227 5.53685C17.1098 5.52948 17.1175 5.53082 17.1653 5.57424C17.2168 5.62102 17.2829 5.68675 17.3962 5.80006L17.9619 5.23438L18.5276 4.66869C18.3458 4.48684 18.1493 4.2811 17.9183 4.14869L17.5205 4.84277ZM17.9619 5.23438L17.3962 5.80006L18.1999 6.60377L18.7656 6.03809L19.3313 5.4724L18.5276 4.66869L17.9619 5.23438ZM18.7656 6.03809L18.1999 6.60377C18.3137 6.71751 18.3794 6.78341 18.4266 6.83515C18.4703 6.88314 18.4712 6.89032 18.4633 6.87661L19.1572 6.47852L19.8511 6.08042C19.7185 5.84928 19.5109 5.65203 19.3313 5.4724L18.7656 6.03809ZM19.1572 6.47852L18.4631 6.87625C18.4948 6.93148 18.4982 6.99924 18.472 7.05786L19.2021 7.38477L19.9323 7.71167C20.1673 7.18673 20.1376 6.5803 19.8513 6.08078L19.1572 6.47852ZM19.2021 7.38477L18.472 7.05782C18.4782 7.044 18.4778 7.05155 18.4394 7.10334C18.3979 7.1592 18.3391 7.23138 18.2375 7.3555L18.8564 7.8623L19.4754 8.36911C19.6378 8.17083 19.8234 7.95484 19.9323 7.71172L19.2021 7.38477ZM18.8564 7.8623L18.2375 7.3555C18.0602 7.57199 17.9059 7.76001 17.7908 7.91766C17.6795 8.07021 17.5537 8.26099 17.4844 8.48655L18.249 8.72168L19.0137 8.95681C19.0021 8.99438 18.9969 8.97921 19.0832 8.86094C19.1658 8.74776 19.2863 8.60009 19.4754 8.36911L18.8564 7.8623ZM18.249 8.72168L17.4842 8.48714C17.2316 9.31077 17.5976 10.1997 18.3599 10.6048L18.7354 9.89844L19.1108 9.19203C19.027 9.14747 18.9855 9.04866 19.0139 8.95622L18.249 8.72168ZM18.7354 9.89844L18.3599 10.6049C18.5691 10.716 18.7939 10.762 18.9804 10.7912C19.1733 10.8213 19.4159 10.8452 19.6946 10.8732L19.7744 10.0771L19.8542 9.28114C19.5562 9.25126 19.3662 9.232 19.2272 9.21031C19.0818 9.18761 19.0753 9.17317 19.1108 9.19199L18.7354 9.89844ZM19.7744 10.0771L19.6946 10.8732C19.8546 10.8892 19.9474 10.8987 20.0163 10.909C20.0802 10.9184 20.0857 10.9235 20.0715 10.9181L20.3574 10.1709L20.6433 9.42372C20.3941 9.32836 20.1097 9.30675 19.8542 9.28114L19.7744 10.0771ZM20.3574 10.1709L20.0715 10.9181C20.1306 10.9407 20.176 10.9905 20.1929 11.0527L20.9648 10.8428L21.7368 10.6329C21.5862 10.0791 21.1805 9.62928 20.6433 9.42373L20.3574 10.1709ZM20.9648 10.8428L20.1928 11.0525C20.1889 11.0381 20.1934 11.0442 20.1964 11.1086C20.1998 11.178 20.2 11.2711 20.2 11.4316H21H21.8C21.8 11.1748 21.8067 10.8903 21.7369 10.6331L20.9648 10.8428ZM21 11.4316H20.2V12.5684H21H21.8V11.4316H21ZM21 12.5684H20.2C20.2 12.7289 20.1998 12.822 20.1965 12.8915C20.1934 12.9558 20.1889 12.9619 20.1928 12.9474L20.9648 13.1572L21.7368 13.367C21.8068 13.1097 21.8 12.8251 21.8 12.5684H21ZM20.9648 13.1572L20.1929 12.9473C20.1759 13.0096 20.1305 13.0594 20.0716 13.0819L20.3574 13.8291L20.6433 14.5763C21.1806 14.3707 21.5862 13.9209 21.7368 13.3672L20.9648 13.1572ZM20.3574 13.8291L20.0718 13.0818C20.0873 13.0759 20.0827 13.0809 20.0181 13.0903C19.9484 13.1005 19.8558 13.1097 19.6948 13.1258L19.7744 13.9219L19.854 14.7179C20.1054 14.6928 20.3931 14.6719 20.643 14.5764L20.3574 13.8291ZM19.7744 13.9219L19.6948 13.1258C19.4153 13.1538 19.1728 13.1779 18.9792 13.2084C18.792 13.238 18.5682 13.2844 18.3599 13.3952L18.7354 14.1016L19.1108 14.808C19.0764 14.8263 19.0838 14.8117 19.2284 14.7889C19.3667 14.7671 19.5568 14.7476 19.854 14.7179L19.7744 13.9219ZM18.7354 14.1016L18.3597 13.3952C17.5983 13.8002 17.232 14.6879 17.484 15.5115L18.249 15.2773L19.014 15.0432C18.9858 14.9511 19.027 14.8526 19.111 14.8079L18.7354 14.1016ZM18.249 15.2773L17.4843 15.5122C17.5535 15.7376 17.679 15.9284 17.7904 16.0813C17.9056 16.2393 18.0599 16.4275 18.2374 16.6444L18.8564 16.1377L19.4755 15.631C19.2865 15.4 19.1659 15.2521 19.0835 15.139C18.9973 15.0207 19.0023 15.0053 19.0138 15.0425L18.249 15.2773ZM18.8564 16.1377L18.2374 16.6444C18.339 16.7685 18.3978 16.8407 18.4393 16.8967C18.4778 16.9486 18.4783 16.9562 18.4721 16.9424L19.2021 16.6152L19.9322 16.2881C19.8233 16.0452 19.6377 15.8291 19.4755 15.631L18.8564 16.1377ZM19.2021 16.6152L18.4719 16.9419C18.498 17.0003 18.4946 17.0677 18.4629 17.1231L19.1572 17.5205L19.8515 17.9179C20.1372 17.4189 20.1672 16.8133 19.9324 16.2885L19.2021 16.6152ZM19.1572 17.5205L18.463 17.123C18.4698 17.111 18.4681 17.1191 18.4253 17.1664C18.3791 17.2174 18.3136 17.2835 18.2008 17.3963L18.7666 17.9619L19.3324 18.5275C19.5161 18.3437 19.7194 18.1486 19.8515 17.918L19.1572 17.5205ZM18.7666 17.9619L18.2009 17.3962L17.3972 18.1999L17.9629 18.7656L18.5286 19.3313L19.3323 18.5276L18.7666 17.9619ZM17.9629 18.7656L17.3971 18.2C17.2838 18.3134 17.2177 18.3791 17.1663 18.4258C17.1187 18.469 17.111 18.4704 17.1236 18.4632L17.5215 19.1572L17.9194 19.8513C18.1504 19.7188 18.3464 19.5136 18.5287 19.3312L17.9629 18.7656ZM17.5215 19.1572L17.124 18.4629C17.068 18.495 17.0005 18.4981 16.9429 18.4724L16.6172 19.2031L16.2915 19.9338C16.8165 20.1679 17.4213 20.1364 17.9189 19.8515L17.5215 19.1572ZM16.6172 19.2031L16.9433 18.4726C16.9573 18.4788 16.9496 18.4784 16.8974 18.4397C16.8413 18.3981 16.7687 18.339 16.6442 18.2372L16.1377 18.8564L15.6312 19.4757C15.8301 19.6384 16.0472 19.8248 16.2911 19.9336L16.6172 19.2031ZM16.1377 18.8564L16.6442 18.2372C16.4273 18.0598 16.2388 17.9052 16.0809 17.79C15.9283 17.6786 15.7369 17.5524 15.5105 17.4831L15.2764 18.248L15.0422 19.013C15.0042 19.0014 15.0191 18.9959 15.1378 19.0825C15.2514 19.1654 15.3994 19.2861 15.6312 19.4757L16.1377 18.8564ZM15.2764 18.248L15.5102 17.483C14.686 17.2311 13.7985 17.5989 13.3941 18.36L14.1006 18.7354L14.8071 19.1107C14.852 19.0262 14.951 18.9851 15.0426 19.0131L15.2764 18.248ZM14.1006 18.7354L13.394 18.3602C13.2831 18.5691 13.237 18.7934 13.2078 18.9803C13.1776 19.1735 13.1536 19.4161 13.1258 19.695L13.9219 19.7744L14.7179 19.8538C14.7476 19.5562 14.7669 19.3662 14.7886 19.2275C14.8112 19.0825 14.8257 19.0756 14.8072 19.1105L14.1006 18.7354ZM13.9219 19.7744L13.1258 19.695C13.1098 19.8553 13.1005 19.9478 13.0904 20.017C13.081 20.0811 13.076 20.0862 13.0816 20.0715L13.8291 20.3564L14.5766 20.6414C14.6716 20.3922 14.6927 20.1067 14.7179 19.8538L13.9219 19.7744ZM13.8291 20.3564L13.0817 20.0711C13.059 20.1307 13.0088 20.1761 12.9471 20.1929L13.1572 20.9648L13.3674 21.7368C13.9219 21.5858 14.3714 21.1789 14.5765 20.6418L13.8291 20.3564ZM13.1572 20.9648L12.9474 20.1928C12.962 20.1889 12.9558 20.1934 12.8914 20.1964C12.8219 20.1998 12.7288 20.2 12.5684 20.2V21V21.8C12.825 21.8 13.1098 21.8068 13.367 21.7368L13.1572 20.9648ZM12.5684 21V20.2H11.4307V21V21.8H12.5684V21ZM11.4307 21V20.2C11.2702 20.2 11.177 20.1998 11.1076 20.1964C11.0432 20.1934 11.0371 20.1889 11.0515 20.1928L10.8418 20.9648L10.6321 21.7369C10.8893 21.8067 11.1738 21.8 11.4307 21.8V21ZM10.8418 20.9648L11.0517 20.1929C10.9895 20.176 10.9397 20.1306 10.9171 20.0715L10.1699 20.3574L9.42276 20.6433C9.62829 21.1804 10.078 21.5863 10.6319 21.7368L10.8418 20.9648ZM10.1699 20.3574L10.9171 20.0716C10.9225 20.0858 10.9175 20.0802 10.908 20.0163C10.8978 19.9473 10.8882 19.8546 10.8722 19.6946L10.0762 19.7744L9.28016 19.8542C9.30578 20.1096 9.3274 20.3941 9.42273 20.6433L10.1699 20.3574ZM10.0762 19.7744L10.8722 19.6946C10.8442 19.416 10.8203 19.1737 10.7901 18.9809C10.7609 18.7943 10.7149 18.5701 10.6041 18.3614L9.89746 18.7363L9.19077 19.1113C9.1722 19.0763 9.18665 19.0831 9.20933 19.2281C9.23103 19.3668 9.25033 19.5567 9.28016 19.8542L10.0762 19.7744ZM9.89746 18.7363L10.6039 18.3609C10.1995 17.6 9.31219 17.2318 8.48765 17.484L8.72168 18.249L8.95571 19.014C9.04695 18.9861 9.14591 19.0269 9.19102 19.1118L9.89746 18.7363ZM8.72168 18.249L8.48729 17.4841C8.26154 17.5533 8.07049 17.679 7.91768 17.7904C7.75969 17.9056 7.57143 18.0599 7.35465 18.2374L7.86133 18.8564L8.36801 19.4755C8.59902 19.2865 8.7469 19.1659 8.86012 19.0834C8.97851 18.9971 8.99374 19.0024 8.95607 19.0139L8.72168 18.249ZM7.86133 18.8564L7.35465 18.2374C7.23037 18.3391 7.15821 18.3979 7.10228 18.4394C7.05043 18.4779 7.043 18.4782 7.057 18.4719L7.38379 19.2021L7.71058 19.9324C7.95386 19.8235 8.17013 19.6375 8.36801 19.4755L7.86133 18.8564ZM7.38379 19.2021L7.05705 18.4719C6.99858 18.4981 6.93138 18.4947 6.87607 18.463L6.47852 19.1572L6.08096 19.8515C6.58017 20.1373 7.18569 20.1672 7.71052 19.9324L7.38379 19.2021ZM6.47852 19.1572L6.87637 18.4632C6.88919 18.4705 6.88142 18.4691 6.83362 18.4257C6.78219 18.379 6.71603 18.3132 6.6029 18.2L6.03711 18.7656L5.47132 19.3312C5.65337 19.5133 5.84977 19.7189 6.08066 19.8513L6.47852 19.1572ZM6.03711 18.7656L6.60279 18.1999L5.79908 17.3962L5.2334 17.9619L4.66771 18.5276L5.47142 19.3313L6.03711 18.7656ZM5.2334 17.9619L5.79919 17.3963C5.6856 17.2827 5.61992 17.2167 5.57309 17.1652C5.52971 17.1174 5.52862 17.11 5.53614 17.1232L4.8418 17.5205L4.14745 17.9179C4.27996 18.1494 4.48629 18.3461 4.6676 18.5275L5.2334 17.9619ZM4.8418 17.5205L5.53615 17.1232C5.50482 17.0684 5.50117 17.0011 5.52746 16.9422L4.79688 16.6162L4.06629 16.2902C3.83261 16.814 3.86188 17.4188 4.14744 17.9178L4.8418 17.5205ZM4.79688 16.6162L5.52731 16.9425C5.52126 16.956 5.52179 16.9483 5.56017 16.8965C5.60154 16.8406 5.66035 16.7683 5.76184 16.6442L5.14258 16.1377L4.52332 15.6312C4.36025 15.8306 4.17513 16.0466 4.06644 16.2899L4.79688 16.6162ZM5.14258 16.1377L5.76184 16.6442C5.93923 16.4273 6.09385 16.2388 6.20903 16.0809C6.32039 15.9283 6.4467 15.7369 6.51597 15.5104L5.75098 15.2764L4.98598 15.0423C4.99767 15.0041 5.00324 15.019 4.91653 15.1378C4.83365 15.2514 4.71286 15.3995 4.52332 15.6312L5.14258 16.1377ZM5.75098 15.2764L6.51599 15.5104C6.76818 14.6859 6.40033 13.7984 5.63885 13.394L5.26367 14.1006L4.88849 14.8072C4.9731 14.8521 5.01399 14.9507 4.98597 15.0424L5.75098 15.2764ZM5.26367 14.1006L5.63885 13.394C5.43017 13.2832 5.20611 13.2371 5.01926 13.2078C4.82616 13.1776 4.58383 13.1536 4.305 13.1258L4.22559 13.9219L4.14617 14.7179C4.44351 14.7476 4.63331 14.7669 4.77176 14.7885C4.91645 14.8112 4.92335 14.8257 4.88849 14.8072L5.26367 14.1006ZM4.22559 13.9219L4.305 13.1258C4.14475 13.1098 4.05221 13.1005 3.98297 13.0903C3.91883 13.081 3.91377 13.076 3.92859 13.0816L3.64355 13.8291L3.35852 14.5766C3.60778 14.6716 3.89342 14.6927 4.14617 14.7179L4.22559 13.9219ZM3.64355 13.8291L3.9288 13.0817C3.86997 13.0592 3.8242 13.0092 3.8072 12.9466L3.03516 13.1562L2.26311 13.3659C2.41362 13.9202 2.81994 14.3711 3.3583 14.5765L3.64355 13.8291ZM3.03516 13.1562L3.80731 12.947C3.81113 12.9611 3.80666 12.9547 3.80359 12.8906C3.80028 12.8214 3.8 12.7284 3.8 12.5684H3H2.2C2.2 12.8255 2.19345 13.1088 2.26301 13.3655L3.03516 13.1562ZM3 12.5684H3.8V11.4316H3H2.2V12.5684H3ZM3 11.4316H3.8C3.8 11.2711 3.80025 11.178 3.80355 11.1086C3.80661 11.0443 3.8111 11.0381 3.8072 11.0524L3.03516 10.8428L2.26312 10.6331C2.19326 10.8904 2.2 11.1747 2.2 11.4316H3ZM3.03516 10.8428L3.80711 11.0527C3.82403 10.9905 3.8695 10.9406 3.92852 10.9181L3.64258 10.1709L3.35663 9.42375C2.81955 9.62929 2.4138 10.0791 2.2632 10.6328L3.03516 10.8428ZM3.64258 10.1709L3.92848 10.9181C3.91428 10.9235 3.91982 10.9184 3.9837 10.909C4.05266 10.8987 4.14539 10.8892 4.30541 10.8732L4.22559 10.0771L4.14576 9.28114C3.89047 9.30674 3.60596 9.32834 3.35668 9.42373L3.64258 10.1709ZM4.22559 10.0771L4.30541 10.8732C4.58395 10.8452 4.8265 10.8213 5.01943 10.7912C5.206 10.7621 5.43074 10.7161 5.63997 10.6049L5.26465 9.89844L4.88933 9.19194C4.9246 9.1732 4.91806 9.18765 4.77272 9.21033C4.63372 9.23202 4.44371 9.25126 4.14576 9.28114L4.22559 10.0771ZM5.26465 9.89844L5.64046 10.6047C6.40156 10.1997 6.76763 9.31191 6.51603 8.4888L5.75098 8.72266L4.98592 8.95651C5.01411 9.04874 4.9727 9.14758 4.88884 9.1922L5.26465 9.89844ZM5.75098 8.72266L6.5159 8.48838C6.44685 8.26291 6.32156 8.072 6.21002 7.91874C6.09482 7.76044 5.94046 7.57199 5.76273 7.35475L5.14355 7.86133L4.52438 8.36791C4.71347 8.59902 4.83398 8.74705 4.91636 8.86024C5.0024 8.97847 4.99741 8.99404 4.98605 8.95694L5.75098 8.72266ZM5.14355 7.86133L5.76273 7.35475C5.66092 7.23032 5.60215 7.15819 5.56057 7.10221C5.52207 7.05039 5.52179 7.04298 5.52804 7.05695L4.79785 7.38379L4.06766 7.71063C4.17657 7.95393 4.36258 8.17015 4.52438 8.36791L5.14355 7.86133ZM4.79785 7.38379L5.52823 7.05738C5.50192 6.99849 5.50553 6.93101 5.53697 6.87613L4.84277 6.47852L4.14858 6.08091C3.86254 6.5803 3.83316 7.18591 4.06747 7.7102L4.79785 7.38379ZM4.84277 6.47852L5.53693 6.87619C5.52961 6.88897 5.53092 6.88131 5.57418 6.8337C5.62087 6.78232 5.68655 6.71626 5.79995 6.6029L5.23438 6.03711L4.6688 5.47132C4.4866 5.65344 4.28108 5.84962 4.14861 6.08084L4.84277 6.47852ZM5.23438 6.03711L5.79972 6.60314L6.6044 5.79943L6.03906 5.2334L5.47372 4.66737L4.66903 5.47108L5.23438 6.03711ZM6.03906 5.2334L6.60464 5.79919C6.71791 5.68597 6.78378 5.62048 6.83507 5.57388C6.88255 5.53074 6.89006 5.52954 6.87716 5.53694L6.47949 4.84277L6.08183 4.14861C5.85089 4.28091 5.65493 4.48623 5.47349 4.6676L6.03906 5.2334ZM6.47949 4.84277L6.87708 5.53698C6.93388 5.50445 7.00122 5.5017 7.05812 5.52715L7.38477 4.79688L7.71141 4.0666C7.18503 3.83116 6.57957 3.86354 6.08191 4.14857L6.47949 4.84277ZM7.38477 4.79688L7.05805 5.52712C7.04299 5.52038 7.04971 5.52011 7.10176 5.55891C7.15802 5.60085 7.22986 5.65959 7.35477 5.76177L7.86133 5.14258L8.36788 4.52338C8.17278 4.36377 7.95527 4.1757 7.71148 4.06663L7.38477 4.79688ZM7.86133 5.14258L7.35477 5.76177C7.57152 5.93909 7.75976 6.09341 7.91766 6.20851C8.0704 6.31985 8.26139 6.44559 8.48706 6.51482L8.72168 5.75L8.9563 4.98518C8.9939 4.99671 8.97863 5.00193 8.86017 4.91558C8.74687 4.83299 8.59898 4.71244 8.36788 4.52338L7.86133 5.14258ZM8.72168 5.75L8.48745 6.51494C9.31232 6.76752 10.1997 6.39912 10.604 5.63798L9.89746 5.2627L9.19095 4.88741C9.14581 4.97239 9.04713 5.01299 8.95591 4.98506L8.72168 5.75ZM9.89746 5.2627L10.604 5.63796C10.7149 5.42912 10.761 5.20483 10.7902 5.01817C10.8204 4.82521 10.8443 4.58287 10.8722 4.30425L10.0762 4.22461L9.28015 4.14497C9.25038 4.44244 9.23111 4.63226 9.20942 4.77088C9.18675 4.9158 9.1723 4.92251 9.19094 4.88743L9.89746 5.2627ZM10.0762 4.22461L10.8722 4.30425C10.8881 4.14552 10.8977 4.0531 10.9079 3.98486C10.9173 3.92164 10.9225 3.9154 10.9174 3.92861L10.1699 3.64355L9.42243 3.3585C9.32783 3.60657 9.30586 3.88795 9.28015 4.14497L10.0762 4.22461ZM10.1699 3.64355L10.9173 3.92897C10.9401 3.86911 10.9903 3.82383 11.0517 3.80713L10.8418 3.03516L10.6319 2.26319C10.0769 2.41409 9.62762 2.82122 9.42257 3.35814L10.1699 3.64355ZM10.8418 3.03516L11.0514 3.80721C11.0369 3.81115 11.0431 3.80665 11.1077 3.80357C11.1772 3.80026 11.2704 3.8 11.4307 3.8V3V2.2C11.174 2.2 10.8892 2.19333 10.6322 2.2631L10.8418 3.03516ZM11.4307 3V3.8H12.5684V3V2.2H11.4307V3ZM12 8.39941V7.59941C9.56995 7.59941 7.59941 9.56995 7.59941 12H8.39941H9.19941C9.19941 10.4536 10.4536 9.19941 12 9.19941V8.39941ZM8.39941 12L7.59941 12C7.59956 14.4302 9.57026 16.3996 12 16.3996V15.5996V14.7996C10.4534 14.7996 9.19951 13.5461 9.19941 12L8.39941 12ZM12 15.5996L12 16.3996C14.4299 16.3995 16.3995 14.4299 16.3996 12L15.5996 12L14.7996 12C14.7995 13.5462 13.5462 14.7995 12 14.7996L12 15.5996ZM15.5996 12H16.3996C16.3996 9.57026 14.4302 7.59956 12 7.59941L12 8.39941L12 9.19941C13.5461 9.19951 14.7996 10.4534 14.7996 12H15.5996Z" fill="#26272C"/>
</svg>
