<svg width="24" height="24" viewBox="0 0 24 24" fill="none" xmlns="http://www.w3.org/2000/svg">
<path d="M9 9C9.2351 8.33167 9.78915 7.76811 10.4 7.40913C11.0108 7.05016 11.7289 6.91894 12.4272 7.03871C13.1255 7.15849 13.7588 7.52152 14.2151 8.06353C14.6713 8.60553 14.9211 9.29152 14.92 10C14.92 12 12 13 12 13V14.5M12 17.4V17.5M22 12C22 17.5228 17.5228 22 12 22C6.47715 22 2 17.5228 2 12C2 6.47715 6.47715 2 12 2C17.5228 2 22 6.47715 22 12Z" stroke="#26272C" stroke-width="1.6" stroke-linecap="round" stroke-linejoin="round"/>
</svg>
