<svg width="24" height="24" viewBox="0 0 24 24" fill="none" xmlns="http://www.w3.org/2000/svg">
<path d="M9.0293 19.7998C10.0293 20.5544 12.6293 21.6109 15.0293 19.7998" stroke="#26272C" stroke-width="1.6" stroke-linecap="round"/>
<path d="M12.5017 2C13.7085 2.00017 14.8368 2.36771 15.7751 3.00098C15.1809 3.19693 14.648 3.52763 14.2136 3.95801C13.6882 3.72697 13.1084 3.59972 12.5017 3.59961H12.029C9.59022 3.59961 7.5416 5.43358 7.27218 7.85742L7.02022 10.124C7.01709 10.1522 7.01522 10.1686 7.01339 10.1846C6.87152 11.4204 6.46888 12.6126 5.83272 13.6816C5.82455 13.6954 5.81595 13.7093 5.80147 13.7334L5.22335 14.6973C4.95241 15.1488 4.78126 15.4361 4.67843 15.6543C4.62767 15.7621 4.60864 15.822 4.60225 15.8477C4.61099 15.8828 4.62945 15.9138 4.65499 15.9395C4.68026 15.9472 4.74095 15.9627 4.85909 15.9746C5.09919 15.9987 5.43474 16 5.96163 16H18.0964C18.6234 16 18.9589 15.9988 19.1989 15.9746C19.3161 15.9628 19.3765 15.9472 19.4021 15.9395C19.4277 15.9138 19.446 15.8829 19.4548 15.8477C19.4484 15.822 19.4302 15.7618 19.3796 15.6543C19.2768 15.4361 19.1056 15.1488 18.8347 14.6973C18.2556 13.7321 17.9251 13.1839 17.6774 12.5957C17.5112 12.2009 17.3734 11.7947 17.2663 11.3799C17.2178 11.1917 17.1791 11.0015 17.1433 10.7969C17.6995 10.7812 18.2268 10.6521 18.7038 10.4316C18.7372 10.6355 18.7712 10.8091 18.8151 10.9795C18.9027 11.319 19.016 11.6525 19.1521 11.9756C19.3455 12.4349 19.6055 12.872 20.2067 13.874C20.4598 14.2958 20.6816 14.6644 20.8269 14.9727C20.9701 15.2768 21.1072 15.6579 21.0407 16.0801C20.9729 16.5098 20.7512 16.9004 20.4177 17.1797C20.0901 17.4539 19.6935 17.5327 19.3591 17.5664C19.0199 17.6005 18.5885 17.5996 18.0964 17.5996H5.96163C5.46954 17.5996 5.03814 17.6005 4.69893 17.5664C4.36449 17.5327 3.96804 17.4538 3.64034 17.1797C3.30671 16.9004 3.08512 16.5098 3.01729 16.0801C2.95074 15.6578 3.08788 15.2769 3.23116 14.9727C3.37642 14.6643 3.59821 14.2958 3.85128 13.874L4.4294 12.9102C4.44442 12.8851 4.45133 12.874 4.45772 12.8633C4.97822 11.9886 5.30749 11.0132 5.42354 10.002C5.42498 9.98945 5.42712 9.97657 5.43038 9.94727L5.68136 7.68066C6.04081 4.44653 8.77494 2 12.029 2H12.5017Z" fill="#26272C"/>
<circle cx="17.0293" cy="6.7998" r="3" fill="#FB437D"/>
</svg>
