<svg width="24" height="24" viewBox="0 0 24 24" fill="none" xmlns="http://www.w3.org/2000/svg">
<path d="M4.88889 4H19.1111C19.3469 4 19.573 4.09514 19.7397 4.26448C19.9064 4.43382 20 4.6635 20 4.90299V6.33512C19.9999 6.57459 19.9063 6.80423 19.7396 6.97354L14.0382 12.7653C13.8715 12.9346 13.7778 13.1642 13.7778 13.4037V19.097C13.7778 19.2343 13.747 19.3697 13.6877 19.4931C13.6284 19.6164 13.5423 19.7244 13.4357 19.8089C13.3292 19.8933 13.2052 19.952 13.073 19.9804C12.9408 20.0089 12.804 20.0063 12.6729 19.9729L10.8951 19.5214C10.7029 19.4725 10.5323 19.3598 10.4104 19.2011C10.2884 19.0424 10.2222 18.8468 10.2222 18.6455V13.4037C10.2222 13.1642 10.1285 12.9346 9.96178 12.7653L4.26044 6.97354C4.09373 6.80423 4.00005 6.57459 4 6.33512V4.90299C4 4.6635 4.09365 4.43382 4.26035 4.26448C4.42705 4.09514 4.65314 4 4.88889 4Z" stroke="#676B79" stroke-width="1.6" stroke-linecap="round" stroke-linejoin="round"/>
</svg>
