<svg width="24" height="24" viewBox="0 0 24 24" fill="none" xmlns="http://www.w3.org/2000/svg">
<path d="M17 4H7C5.34315 4 4 5.34315 4 7V17C4 18.6569 5.34315 20 7 20H17C18.6569 20 20 18.6569 20 17V7C20 5.34315 18.6569 4 17 4Z" stroke="white" stroke-width="1.6"/>
<path d="M4 13.3543L4.86786 12.6089C5.34454 12.1997 5.97707 11.9812 6.62742 12.0013C7.27778 12.0213 7.89316 12.2782 8.33929 12.7158L11.1754 15.4975C11.7529 16.0637 12.6968 16.14 13.3707 15.6757C13.8411 15.352 14.4203 15.1924 15.0058 15.2252C15.5913 15.258 16.1453 15.481 16.57 15.8549L19 18" stroke="white" stroke-width="1.6" stroke-linecap="round"/>
<path d="M14.5 11C15.3284 11 16 10.3284 16 9.5C16 8.67157 15.3284 8 14.5 8C13.6716 8 13 8.67157 13 9.5C13 10.3284 13.6716 11 14.5 11Z" stroke="white" stroke-width="1.6"/>
</svg>
