<svg width="24" height="24" viewBox="0 0 24 24" fill="none" xmlns="http://www.w3.org/2000/svg">
<path d="M19 20C19.2652 20 19.5196 19.9037 19.7071 19.7322C19.8946 19.5608 20 19.3282 20 19.0857V17.9465C20.004 15.381 16.026 13.3714 12 13.3714C7.974 13.3714 4 15.381 4 17.9465V19.0857C4 19.3282 4.10536 19.5608 4.29289 19.7322C4.48043 19.9037 4.73478 20 5 20H19ZM15.604 7.29509C15.604 7.7278 15.5108 8.15628 15.3297 8.55606C15.1485 8.95584 14.8831 9.31909 14.5484 9.62506C14.2137 9.93104 13.8164 10.1738 13.3792 10.3393C12.9419 10.5049 12.4733 10.5902 12 10.5902C11.5267 10.5902 11.0581 10.5049 10.6208 10.3393C10.1835 10.1738 9.78625 9.93104 9.45159 9.62506C9.11692 9.31909 8.85145 8.95584 8.67034 8.55606C8.48922 8.15628 8.396 7.7278 8.396 7.29509C8.396 6.42118 8.7757 5.58306 9.45159 4.96511C10.1275 4.34716 11.0442 4 12 4C12.9558 4 13.8725 4.34716 14.5484 4.96511C15.2243 5.58306 15.604 6.42118 15.604 7.29509Z" stroke="#FF6C9A" stroke-width="1.6" stroke-linecap="round" stroke-linejoin="round"/>
</svg>
