<svg width="32" height="32" viewBox="0 0 32 32" fill="none" xmlns="http://www.w3.org/2000/svg">
<path d="M26.5 28C26.8978 28 27.2794 27.8555 27.5607 27.5983C27.842 27.3411 28 26.9923 28 26.6286V24.9198C28.006 21.0715 22.039 18.0571 16 18.0571C9.961 18.0571 4 21.0715 4 24.9198V26.6286C4 26.9923 4.15804 27.3411 4.43934 27.5983C4.72064 27.8555 5.10217 28 5.5 28H26.5ZM21.406 8.94263C21.406 9.5917 21.2662 10.2344 20.9945 10.8341C20.7228 11.4338 20.3246 11.9786 19.8226 12.4376C19.3206 12.8966 18.7247 13.2606 18.0688 13.509C17.4129 13.7574 16.7099 13.8853 16 13.8853C15.2901 13.8853 14.5871 13.7574 13.9312 13.509C13.2753 13.2606 12.6794 12.8966 12.1774 12.4376C11.6754 11.9786 11.2772 11.4338 11.0055 10.8341C10.7338 10.2344 10.594 9.5917 10.594 8.94263C10.594 7.63176 11.1636 6.37459 12.1774 5.44766C13.1912 4.52074 14.5662 4 16 4C17.4338 4 18.8088 4.52074 19.8226 5.44766C20.8364 6.37459 21.406 7.63176 21.406 8.94263Z" fill="#FF6C9A" stroke="#FF6C9A" stroke-width="2" stroke-linecap="round" stroke-linejoin="round"/>
</svg>
