<svg width="66" height="66" viewBox="0 0 66 66" fill="none" xmlns="http://www.w3.org/2000/svg">
<g filter="url(#filter0_d_968_9595)">
<rect x="6" y="4" width="54" height="54" rx="27" fill="#F2F2F2"/>
<g clip-path="url(#clip0_968_9595)">
<path d="M33 29.1819V33.0546H38.3818C38.1455 34.3001 37.4363 35.3547 36.3727 36.0637L39.6181 38.5819C41.509 36.8365 42.5999 34.2729 42.5999 31.2274C42.5999 30.5184 42.5363 29.8365 42.4181 29.182L33 29.1819Z" fill="#4285F4"/>
<path d="M27.3952 32.9033L26.6632 33.4636L24.0723 35.4818C25.7177 38.7454 29.0902 41 32.9993 41C35.6992 41 37.9628 40.1091 39.6174 38.5818L36.3719 36.0636C35.481 36.6636 34.3447 37.0273 32.9993 37.0273C30.3993 37.0273 28.1902 35.2728 27.3993 32.9091L27.3952 32.9033Z" fill="#34A853"/>
<path d="M24.0726 26.5181C23.3909 27.8635 23 29.3817 23 30.9998C23 32.618 23.3909 34.1362 24.0726 35.4816C24.0726 35.4906 27.4 32.8998 27.4 32.8998C27.2 32.2998 27.0818 31.6634 27.0818 30.9997C27.0818 30.336 27.2 29.6997 27.4 29.0997L24.0726 26.5181Z" fill="#FBBC05"/>
<path d="M32.9995 24.9818C34.4722 24.9818 35.7813 25.4909 36.8267 26.4727L39.6903 23.6091C37.954 21.991 35.6995 21 32.9995 21C29.0904 21 25.7177 23.2455 24.0723 26.5182L27.3995 29.1C28.1904 26.7363 30.3995 24.9818 32.9995 24.9818Z" fill="#EA4335"/>
</g>
</g>
<defs>
<filter id="filter0_d_968_9595" x="0" y="0" width="66" height="66" filterUnits="userSpaceOnUse" color-interpolation-filters="sRGB">
<feFlood flood-opacity="0" result="BackgroundImageFix"/>
<feColorMatrix in="SourceAlpha" type="matrix" values="0 0 0 0 0 0 0 0 0 0 0 0 0 0 0 0 0 0 127 0" result="hardAlpha"/>
<feOffset dy="2"/>
<feGaussianBlur stdDeviation="3"/>
<feComposite in2="hardAlpha" operator="out"/>
<feColorMatrix type="matrix" values="0 0 0 0 0 0 0 0 0 0 0 0 0 0 0 0 0 0 0.2 0"/>
<feBlend mode="normal" in2="BackgroundImageFix" result="effect1_dropShadow_968_9595"/>
<feBlend mode="normal" in="SourceGraphic" in2="effect1_dropShadow_968_9595" result="shape"/>
</filter>
<clipPath id="clip0_968_9595">
<rect width="20" height="20" fill="white" transform="translate(23 21)"/>
</clipPath>
</defs>
</svg>
