<svg width="68" height="68" viewBox="0 0 68 68" fill="none" xmlns="http://www.w3.org/2000/svg">
<g filter="url(#filter0_d_4639_43295)">
<rect x="6.5" y="4.5" width="55" height="55" rx="27.5" stroke="#E0E0E9"/>
<g clip-path="url(#clip0_4639_43295)">
<path d="M42.1593 37.5861C41.8569 38.2848 41.4988 38.928 41.084 39.5194C40.5186 40.3255 40.0557 40.8835 39.6989 41.1934C39.1458 41.702 38.5533 41.9625 37.9187 41.9773C37.4632 41.9773 36.9138 41.8477 36.2743 41.5847C35.6327 41.323 35.0431 41.1934 34.504 41.1934C33.9386 41.1934 33.3322 41.323 32.6836 41.5847C32.034 41.8477 31.5106 41.9847 31.1105 41.9983C30.502 42.0242 29.8955 41.7563 29.2901 41.1934C28.9037 40.8563 28.4204 40.2786 27.8414 39.4601C27.2202 38.586 26.7094 37.5725 26.3093 36.417C25.8808 35.1689 25.666 33.9603 25.666 32.7902C25.666 31.4498 25.9556 30.2938 26.5357 29.3251C26.9917 28.547 27.5982 27.9332 28.3573 27.4826C29.1164 27.0319 29.9366 26.8023 30.8199 26.7876C31.3032 26.7876 31.9371 26.9371 32.7247 27.231C33.5101 27.5258 34.0144 27.6753 34.2355 27.6753C34.4008 27.6753 34.961 27.5005 35.9107 27.1519C36.8089 26.8287 37.5669 26.6949 38.1878 26.7476C39.8705 26.8834 41.1347 27.5467 41.9754 28.7418C40.4705 29.6536 39.7261 30.9307 39.7409 32.5691C39.7545 33.8452 40.2174 34.9071 41.1272 35.7503C41.5396 36.1417 42.0001 36.4441 42.5124 36.6589C42.4013 36.9812 42.284 37.2898 42.1593 37.5861V37.5861ZM38.3002 22.4001C38.3002 23.4003 37.9348 24.3343 37.2064 25.1987C36.3274 26.2263 35.2642 26.8201 34.1113 26.7264C34.0966 26.6064 34.0881 26.4801 34.0881 26.3474C34.0881 25.3872 34.5061 24.3596 35.2484 23.5193C35.619 23.0939 36.0904 22.7402 36.662 22.458C37.2323 22.18 37.7718 22.0263 38.2792 22C38.294 22.1337 38.3002 22.2674 38.3002 22.4001V22.4001Z" fill="black"/>
</g>
</g>
<defs>
<filter id="filter0_d_4639_43295" x="0" y="0" width="68" height="68" filterUnits="userSpaceOnUse" color-interpolation-filters="sRGB">
<feFlood flood-opacity="0" result="BackgroundImageFix"/>
<feColorMatrix in="SourceAlpha" type="matrix" values="0 0 0 0 0 0 0 0 0 0 0 0 0 0 0 0 0 0 127 0" result="hardAlpha"/>
<feOffset dy="2"/>
<feGaussianBlur stdDeviation="3"/>
<feComposite in2="hardAlpha" operator="out"/>
<feColorMatrix type="matrix" values="0 0 0 0 0 0 0 0 0 0 0 0 0 0 0 0 0 0 0.2 0"/>
<feBlend mode="normal" in2="BackgroundImageFix" result="effect1_dropShadow_4639_43295"/>
<feBlend mode="normal" in="SourceGraphic" in2="effect1_dropShadow_4639_43295" result="shape"/>
</filter>
<clipPath id="clip0_4639_43295">
<rect width="20" height="20" fill="white" transform="translate(24 22)"/>
</clipPath>
</defs>
</svg>
