<svg width="114" height="114" viewBox="0 0 114 114" fill="none" xmlns="http://www.w3.org/2000/svg">
<g filter="url(#filter0_d_4585_52115)">
<rect x="30" y="12" width="54" height="54" rx="27" fill="white" shape-rendering="crispEdges"/>
<rect x="30.5" y="12.5" width="53" height="53" rx="26.5" stroke="#E0E0E9" shape-rendering="crispEdges"/>
<path d="M66.2808 45.424C65.933 46.2275 65.5213 46.9672 65.0442 47.6472C64.394 48.5743 63.8616 49.216 63.4513 49.5724C62.8153 50.1573 62.1338 50.4568 61.4041 50.4739C60.8802 50.4739 60.2485 50.3248 59.513 50.0224C58.7752 49.7214 58.0972 49.5724 57.4772 49.5724C56.827 49.5724 56.1296 49.7214 55.3837 50.0224C54.6366 50.3248 54.0348 50.4824 53.5747 50.498C52.8749 50.5278 52.1774 50.2197 51.4812 49.5724C51.0368 49.1848 50.481 48.5204 49.8151 47.5791C49.1007 46.5739 48.5134 45.4084 48.0533 44.0795C47.5605 42.6442 47.3135 41.2543 47.3135 39.9087C47.3135 38.3673 47.6465 37.0379 48.3137 35.9238C48.838 35.029 49.5355 34.3231 50.4084 33.8049C51.2814 33.2867 52.2247 33.0227 53.2405 33.0058C53.7963 33.0058 54.5252 33.1777 55.431 33.5156C56.3342 33.8546 56.9141 34.0265 57.1684 34.0265C57.3585 34.0265 58.0028 33.8255 59.0949 33.4247C60.1278 33.0531 60.9995 32.8992 61.7136 32.9598C63.6487 33.1159 65.1024 33.8788 66.0693 35.253C64.3386 36.3016 63.4826 37.7703 63.4996 39.6544C63.5152 41.122 64.0476 42.3432 65.0939 43.3129C65.5681 43.7629 66.0977 44.1107 66.6868 44.3578C66.5591 44.7283 66.4242 45.0832 66.2808 45.424ZM61.8428 27.9601C61.8428 29.1104 61.4226 30.1844 60.5849 31.1785C59.5741 32.3602 58.3514 33.0431 57.0256 32.9354C57.0087 32.7974 56.9989 32.6521 56.9989 32.4995C56.9989 31.3953 57.4796 30.2135 58.3333 29.2472C58.7595 28.758 59.3015 28.3512 59.9588 28.0267C60.6147 27.7071 61.2352 27.5303 61.8187 27.5C61.8357 27.6538 61.8428 27.8076 61.8428 27.9601Z" fill="black"/>
</g>
<defs>
<filter id="filter0_d_4585_52115" x="0" y="0" width="114" height="114" filterUnits="userSpaceOnUse" color-interpolation-filters="sRGB">
<feFlood flood-opacity="0" result="BackgroundImageFix"/>
<feColorMatrix in="SourceAlpha" type="matrix" values="0 0 0 0 0 0 0 0 0 0 0 0 0 0 0 0 0 0 127 0" result="hardAlpha"/>
<feOffset dy="18"/>
<feGaussianBlur stdDeviation="15"/>
<feComposite in2="hardAlpha" operator="out"/>
<feColorMatrix type="matrix" values="0 0 0 0 0.512832 0 0 0 0 0.468335 0 0 0 0 0.775363 0 0 0 0.11 0"/>
<feBlend mode="normal" in2="BackgroundImageFix" result="effect1_dropShadow_4585_52115"/>
<feBlend mode="normal" in="SourceGraphic" in2="effect1_dropShadow_4585_52115" result="shape"/>
</filter>
</defs>
</svg>
