<svg width="68" height="68" viewBox="0 0 68 68" fill="none" xmlns="http://www.w3.org/2000/svg">
<g filter="url(#filter0_d_4585_52115)">
<rect x="6.5" y="4.5" width="55" height="55" rx="27.5" stroke="#E0E0E9"/>
<path d="M43.2798 38.424C42.932 39.2275 42.5203 39.9672 42.0433 40.6472C41.393 41.5743 40.8606 42.216 40.4503 42.5724C39.8143 43.1573 39.1329 43.4568 38.4031 43.4739C37.8792 43.4739 37.2475 43.3248 36.5121 43.0224C35.7742 42.7214 35.0962 42.5724 34.4762 42.5724C33.826 42.5724 33.1286 42.7214 32.3827 43.0224C31.6356 43.3248 31.0338 43.4824 30.5737 43.498C29.8739 43.5278 29.1764 43.2197 28.4802 42.5724C28.0358 42.1848 27.48 41.5204 26.8142 40.5791C26.0998 39.5739 25.5124 38.4084 25.0523 37.0795C24.5595 35.6442 24.3125 34.2543 24.3125 32.9087C24.3125 31.3673 24.6456 30.0379 25.3127 28.9238C25.837 28.029 26.5345 27.3231 27.4075 26.8049C28.2804 26.2867 29.2237 26.0227 30.2395 26.0058C30.7953 26.0058 31.5242 26.1777 32.43 26.5156C33.3332 26.8546 33.9131 27.0265 34.1674 27.0265C34.3575 27.0265 35.0018 26.8255 36.094 26.4247C37.1268 26.0531 37.9985 25.8992 38.7126 25.9598C40.6477 26.1159 42.1015 26.8788 43.0683 28.253C41.3377 29.3016 40.4816 30.7703 40.4986 32.6544C40.5142 34.122 41.0466 35.3432 42.0929 36.3129C42.5671 36.7629 43.0967 37.1107 43.6859 37.3578C43.5581 37.7283 43.4232 38.0832 43.2798 38.424ZM38.8418 20.9601C38.8418 22.1104 38.4216 23.1844 37.5839 24.1785C36.5731 25.3602 35.3505 26.0431 34.0246 25.9354C34.0077 25.7974 33.9979 25.6521 33.9979 25.4995C33.9979 24.3953 34.4786 23.2135 35.3323 22.2472C35.7585 21.758 36.3005 21.3512 36.9579 21.0267C37.6138 20.7071 38.2342 20.5303 38.8177 20.5C38.8347 20.6538 38.8418 20.8076 38.8418 20.9601Z" fill="black"/>
</g>
<defs>
<filter id="filter0_d_4585_52115" x="0" y="0" width="68" height="68" filterUnits="userSpaceOnUse" color-interpolation-filters="sRGB">
<feFlood flood-opacity="0" result="BackgroundImageFix"/>
<feColorMatrix in="SourceAlpha" type="matrix" values="0 0 0 0 0 0 0 0 0 0 0 0 0 0 0 0 0 0 127 0" result="hardAlpha"/>
<feOffset dy="2"/>
<feGaussianBlur stdDeviation="3"/>
<feComposite in2="hardAlpha" operator="out"/>
<feColorMatrix type="matrix" values="0 0 0 0 0 0 0 0 0 0 0 0 0 0 0 0 0 0 0.2 0"/>
<feBlend mode="normal" in2="BackgroundImageFix" result="effect1_dropShadow_4585_52115"/>
<feBlend mode="normal" in="SourceGraphic" in2="effect1_dropShadow_4585_52115" result="shape"/>
</filter>
</defs>
</svg>
