<svg width="66" height="66" viewBox="0 0 66 66" fill="none" xmlns="http://www.w3.org/2000/svg">
<g filter="url(#filter0_d_968_9665)">
<rect x="6" y="4" width="54" height="54" rx="27" fill="black"/>
<g clip-path="url(#clip0_968_9665)">
<path d="M41.1603 36.5863C40.8578 37.2851 40.4998 37.9283 40.085 38.5196C39.5196 39.3257 39.0567 39.8838 38.6999 40.1936C38.1468 40.7022 37.5542 40.9627 36.9197 40.9775C36.4641 40.9775 35.9148 40.8479 35.2753 40.585C34.6337 40.3232 34.0441 40.1936 33.505 40.1936C32.9396 40.1936 32.3332 40.3232 31.6845 40.585C31.0349 40.8479 30.5116 40.985 30.1115 40.9985C29.503 41.0245 28.8965 40.7566 28.2911 40.1936C27.9047 39.8566 27.4213 39.2788 26.8424 38.4603C26.2211 37.5863 25.7104 36.5727 25.3103 35.4172C24.8818 34.1691 24.667 32.9605 24.667 31.7904C24.667 30.4501 24.9566 29.2941 25.5367 28.3253C25.9926 27.5472 26.5992 26.9334 27.3583 26.4828C28.1174 26.0322 28.9376 25.8026 29.8209 25.7879C30.3042 25.7879 30.938 25.9374 31.7257 26.2312C32.5111 26.526 33.0154 26.6755 33.2365 26.6755C33.4018 26.6755 33.962 26.5007 34.9117 26.1522C35.8098 25.829 36.5678 25.6952 37.1888 25.7479C38.8715 25.8837 40.1356 26.547 40.9763 27.742C39.4715 28.6538 38.727 29.931 38.7419 31.5693C38.7554 32.8454 39.2184 33.9074 40.1282 34.7506C40.5406 35.1419 41.001 35.4444 41.5134 35.6592C41.4023 35.9814 41.285 36.29 41.1603 36.5863ZM37.3012 21.4004C37.3012 22.4006 36.9357 23.3345 36.2074 24.1989C35.3284 25.2265 34.2652 25.8203 33.1123 25.7266C33.0976 25.6067 33.0891 25.4804 33.0891 25.3476C33.0891 24.3874 33.5071 23.3598 34.2494 22.5196C34.62 22.0942 35.0914 21.7404 35.6629 21.4583C36.2333 21.1803 36.7728 21.0266 37.2802 21.0002C37.295 21.134 37.3012 21.2677 37.3012 21.4003V21.4004Z" fill="white"/>
</g>
</g>
<defs>
<filter id="filter0_d_968_9665" x="0" y="0" width="66" height="66" filterUnits="userSpaceOnUse" color-interpolation-filters="sRGB">
<feFlood flood-opacity="0" result="BackgroundImageFix"/>
<feColorMatrix in="SourceAlpha" type="matrix" values="0 0 0 0 0 0 0 0 0 0 0 0 0 0 0 0 0 0 127 0" result="hardAlpha"/>
<feOffset dy="2"/>
<feGaussianBlur stdDeviation="3"/>
<feComposite in2="hardAlpha" operator="out"/>
<feColorMatrix type="matrix" values="0 0 0 0 0 0 0 0 0 0 0 0 0 0 0 0 0 0 0.2 0"/>
<feBlend mode="normal" in2="BackgroundImageFix" result="effect1_dropShadow_968_9665"/>
<feBlend mode="normal" in="SourceGraphic" in2="effect1_dropShadow_968_9665" result="shape"/>
</filter>
<clipPath id="clip0_968_9665">
<rect width="20" height="20" fill="white" transform="translate(23 21)"/>
</clipPath>
</defs>
</svg>
