<svg width="24" height="24" viewBox="0 0 24 24" fill="none" xmlns="http://www.w3.org/2000/svg">
<path d="M19.5 6.15L18.88 15.1725C18.722 17.4774 18.643 18.6303 18 19.4592C17.6826 19.8689 17.2739 20.2146 16.8 20.4744C15.843 21 14.56 21 11.994 21C9.424 21 8.139 21 7.18 20.4735C6.70589 20.2132 6.29721 19.8668 5.98 19.4565C5.338 18.6267 5.26 17.472 5.106 15.1635L4.5 6.15M3 6.15H21M16.056 6.15L15.373 4.8828C14.92 4.0404 14.693 3.6201 14.302 3.3573C14.2151 3.29908 14.1232 3.24731 14.027 3.2025C13.594 3 13.074 3 12.035 3C10.969 3 10.436 3 9.995 3.2106C9.89752 3.25759 9.80453 3.31178 9.717 3.3726C9.322 3.6453 9.101 4.0818 8.659 4.9539L8.053 6.15M9.5 16.05V10.65M14.5 16.05V10.65" stroke="currentColor" stroke-width="1.5" stroke-linecap="round"/>
</svg>
