<svg width="24" height="24" viewBox="0 0 24 24" fill="none" xmlns="http://www.w3.org/2000/svg">
<path d="M15 7H9C8.44772 7 8 7.44772 8 8V10C8 10.5523 8.44772 11 9 11H15C15.5523 11 16 10.5523 16 10V8C16 7.44772 15.5523 7 15 7Z" stroke="#26272C" stroke-width="1.6" stroke-linecap="round"/>
<path d="M10.5 18.5L13 16M13 16L10.5 13.5M13 16H2" stroke="#26272C" stroke-width="1.6" stroke-linecap="round" stroke-linejoin="round"/>
<path d="M4 18C4 19.6569 5.34315 21 7 21H17C18.6569 21 20 19.6569 20 18V6C20 4.34315 18.6569 3 17 3H7C5.34315 3 4 4.34315 4 6V14" stroke="#26272C" stroke-width="1.6"/>
</svg>
