<svg width="24" height="24" viewBox="0 0 24 24" fill="none" xmlns="http://www.w3.org/2000/svg">
<path d="M17 6.2002C18.5464 6.2002 19.7998 7.4536 19.7998 9V19C19.7998 20.5464 18.5464 21.7998 17 21.7998H7C5.4536 21.7998 4.2002 20.5464 4.2002 19V9C4.2002 7.4536 5.4536 6.2002 7 6.2002H10V7.7998H7C6.33726 7.7998 5.7998 8.33726 5.7998 9V19C5.7998 19.6627 6.33726 20.2002 7 20.2002H17C17.6627 20.2002 18.2002 19.6627 18.2002 19V9C18.2002 8.33726 17.6627 7.7998 17 7.7998H14V6.2002H17Z" fill="#26272C"/>
<path d="M14 4L11.9991 2.00012M11.9991 2.00012L10 4M11.9991 2.00012L11.9991 13" stroke="#26272C" stroke-width="1.6" stroke-linecap="round" stroke-linejoin="round"/>
</svg>
